<svg xmlns="http://www.w3.org/2000/svg" xmlns:xlink="http://www.w3.org/1999/xlink" viewBox="0 0 397.1 397.1"><defs><style>.cls-1{fill:url(#Безымянный_градиент_35);}.cls-2{fill:url(#Безымянный_градиент_96);}.cls-3{fill:url(#Безымянный_градиент_96-2);}.cls-4{fill:url(#Безымянный_градиент_96-3);}.cls-5{fill:url(#Безымянный_градиент_96-4);}.cls-6{fill:url(#Безымянный_градиент_96-5);}.cls-7{fill:url(#Безымянный_градиент_96-6);}.cls-8{fill:url(#Безымянный_градиент_96-7);}.cls-9{fill:url(#Безымянный_градиент_96-8);}.cls-10{fill:url(#Безымянный_градиент_96-9);}.cls-11{fill:url(#Безымянный_градиент_96-10);}.cls-12{fill:url(#Безымянный_градиент_96-11);}.cls-13{fill:url(#Безымянный_градиент_96-12);}.cls-14{fill:url(#Безымянный_градиент_96-13);}.cls-15{fill:url(#Безымянный_градиент_96-14);}.cls-16{fill:url(#Безымянный_градиент_96-15);}.cls-17{fill:url(#Безымянный_градиент_96-16);}.cls-18{fill:url(#Безымянный_градиент_96-17);}.cls-19{fill:url(#Безымянный_градиент_96-18);}.cls-20{fill:url(#Безымянный_градиент_96-19);}.cls-21{fill:url(#Безымянный_градиент_96-20);}.cls-22{fill:url(#Безымянный_градиент_96-21);}</style><radialGradient id="Безымянный_градиент_35" cx="196.86" cy="190.32" r="205.35" gradientTransform="translate(2.01 19.98) scale(1 0.94)" gradientUnits="userSpaceOnUse"><stop offset="0" stop-color="#fff"/><stop offset="0.66" stop-color="#fff"/><stop offset="1" stop-color="#a1a1a1"/></radialGradient><radialGradient id="Безымянный_градиент_96" cx="122.57" cy="38.81" r="10.27" gradientUnits="userSpaceOnUse"><stop offset="0" stop-color="#212121"/><stop offset="0.46" stop-color="#242424"/><stop offset="1" stop-color="#8c8c8c"/></radialGradient><radialGradient id="Безымянный_градиент_96-2" cx="138.56" cy="32.4" r="10.74" xlink:href="#Безымянный_градиент_96"/><radialGradient id="Безымянный_градиент_96-3" cx="250.63" cy="28.31" r="10.54" xlink:href="#Безымянный_градиент_96"/><radialGradient id="Безымянный_градиент_96-4" cx="267.52" cy="34.17" r="10.38" xlink:href="#Безымянный_градиент_96"/><radialGradient id="Безымянный_градиент_96-5" cx="281.3" cy="43.26" r="10.74" xlink:href="#Безымянный_градиент_96"/><radialGradient id="Безымянный_градиент_96-6" cx="349.8" cy="109.41" r="11.09" xlink:href="#Безымянный_градиент_96"/><radialGradient id="Безымянный_градиент_96-7" cx="357.23" cy="124.06" r="10.39" xlink:href="#Безымянный_градиент_96"/><radialGradient id="Безымянный_градиент_96-8" cx="362.6" cy="142.22" r="10.31" xlink:href="#Безымянный_градиент_96"/><radialGradient id="Безымянный_градиент_96-9" cx="367.34" cy="156.92" r="9.31" xlink:href="#Безымянный_градиент_96"/><radialGradient id="Безымянный_градиент_96-10" cx="362.11" cy="257.28" r="12.56" xlink:href="#Безымянный_градиент_96"/><radialGradient id="Безымянный_градиент_96-11" cx="355.83" cy="275.42" r="10.4" xlink:href="#Безымянный_градиент_96"/><radialGradient id="Безымянный_градиент_96-12" cx="279.93" cy="355.45" r="13.41" xlink:href="#Безымянный_градиент_96"/><radialGradient id="Безымянный_градиент_96-13" cx="263.72" cy="363.44" r="9.92" xlink:href="#Безымянный_градиент_96"/><radialGradient id="Безымянный_градиент_96-14" cx="247.26" cy="369.5" r="9.47" xlink:href="#Безымянный_градиент_96"/><radialGradient id="Безымянный_градиент_96-15" cx="31.89" cy="148.98" r="10.4" xlink:href="#Безымянный_градиент_96"/><radialGradient id="Безымянный_градиент_96-16" cx="37.24" cy="130.5" r="10.26" xlink:href="#Безымянный_градиент_96"/><radialGradient id="Безымянный_градиент_96-17" cx="44.82" cy="116.54" r="11.72" xlink:href="#Безымянный_градиент_96"/><radialGradient id="Безымянный_градиент_96-18" cx="41.53" cy="273.7" r="10.21" xlink:href="#Безымянный_градиент_96"/><radialGradient id="Безымянный_градиент_96-19" cx="34.77" cy="256.62" r="9.96" xlink:href="#Безымянный_градиент_96"/><radialGradient id="Безымянный_градиент_96-20" cx="137.03" cy="364.71" r="11.44" xlink:href="#Безымянный_градиент_96"/><radialGradient id="Безымянный_градиент_96-21" cx="123.45" cy="357.96" r="9.97" xlink:href="#Безымянный_градиент_96"/></defs><title>background</title><g id="Слой_2" data-name="Слой 2"><g id="chips"><g id="ring_content"><path class="cls-1" d="M384.78,267.54l.27-.72c.5-1.36,1-2.72,1.44-4.09l.18-.5c.2-.6.39-1.21.59-1.81q.67-2,1.3-4.1,1.92-6.31,3.43-12.79l0-.14c.61-2.66,1.16-5.34,1.67-8,.1-.55.22-1.1.32-1.66q1.59-8.92,2.36-18.1c.05-.59.11-1.18.16-1.77.08-1.1.14-2.2.21-3.3,0-.59.08-1.17.11-1.76q.26-5.06.26-10.19v0h0c0-1.85,0-3.7-.08-5.54q-.25-8.94-1.28-17.66-.28-2.42-.62-4.82c-.57-4-1.25-8-2.05-12-.16-.76-.33-1.51-.49-2.27s-.36-1.71-.56-2.56c-1-4.28-2.13-8.51-3.39-12.68-.15-.51-.3-1-.45-1.52s-.41-1.25-.61-1.88c-.3-.92-.59-1.84-.89-2.75-.36-1.08-.75-2.14-1.13-3.21-.16-.46-.32-.92-.49-1.38-.92-2.51-1.9-5-2.91-7.44-.22-.52-.42-1.05-.64-1.58q-2.76-6.54-6-12.82l-.14-.28q-1-2-2.1-4l-.14-.27c-.53-1-1.09-2-1.64-2.93-.24-.42-.47-.85-.71-1.26a198.62,198.62,0,0,0-357,26q-1.78,4.51-3.34,9.12t-2.9,9.33A198.68,198.68,0,0,0,0,198.55H0c0,.43,0,.85,0,1.28,0,1.51,0,3,.07,4.53A199.72,199.72,0,0,0,2,226.85q.33,2.3.71,4.58c.4,2.39.82,4.77,1.31,7.13.13.64.28,1.27.41,1.9.21,1,.41,2,.64,2.92.07.31.15.62.23.93.3,1.29.61,2.57.94,3.85s.68,2.55,1,3.83c.08.3.16.61.25.91.22.78.46,1.55.69,2.33s.46,1.58.7,2.36c.39,1.26.81,2.51,1.22,3.77.1.29.19.58.28.87.39,1.16.81,2.31,1.22,3.47.13.37.26.75.4,1.12q1.61,4.41,3.43,8.71l.12.3c.44,1,.9,2.08,1.36,3.12.19.43.38.87.57,1.31.45,1,.91,2,1.38,3,.22.47.44.95.66,1.42.46.95.93,1.88,1.4,2.82.25.5.49,1,.74,1.49.64,1.25,1.3,2.49,2,3.72l.28.53c.5.93,1,1.84,1.54,2.75.27.48.53,1,.8,1.44.53.92,1.07,1.82,1.61,2.72.28.47.55.94.83,1.4q2.38,3.91,4.93,7.71l.23.35c.78,1.16,1.59,2.31,2.39,3.45l.33.47c.69,1,1.39,1.91,2.09,2.86l.72,1c.79,1.05,1.59,2.09,2.39,3.12l.51.66c.61.78,1.25,1.55,1.87,2.32.37.46.74.93,1.12,1.39q2.9,3.52,6,6.9l.27.3q2.89,3.18,5.92,6.23l.65.67h0c.54.54,1.09,1.06,1.63,1.59s1.18,1.16,1.78,1.74,1.27,1.18,1.9,1.77,1.05,1,1.59,1.48c.71.64,1.43,1.27,2.15,1.91.47.42.94.84,1.41,1.25q5,4.32,10.27,8.31l.87.66q3.46,2.59,7,5l.74.52.29.19q3.5,2.36,7.11,4.56l.66.41.19.11q3.83,2.32,7.76,4.47a197.61,197.61,0,0,0,21.71,10.19l.49.2c1,.4,2.06.79,3.09,1.17l1.45.55c1,.37,2,.72,3.07,1.08l1.52.54c.94.32,1.9.62,2.85.92l1.79.58q4.51,1.4,9.11,2.59l.31.08c1.17.3,2.34.58,3.51.86l1.27.31c2.78.64,5.59,1.21,8.42,1.74l1.28.24c1.33.24,2.67.45,4,.67l.89.15c1.3.2,2.61.37,3.92.55l1,.14c1.36.17,2.73.32,4.1.47l.89.1c1.22.12,2.45.23,3.69.33l1.34.12c1.19.09,2.39.16,3.59.23l1.47.09c1.33.07,2.67.11,4,.15l1.08,0c1.29,0,2.58,0,3.87,0l1.25,0h0c.81,0,1.61,0,2.42,0s1.8,0,2.7,0,1.67-.06,2.51-.1,1.73-.05,2.58-.1,1.94-.12,2.91-.18l2.15-.14c1.49-.11,3-.25,4.44-.39l.58-.05c3-.31,6-.69,9-1.13l1-.14c2.25-.34,4.49-.74,6.72-1.16s4.16-.82,6.22-1.27q2.49-.55,5-1.17,4.4-1.1,8.73-2.39,2.65-.79,5.28-1.65,2.46-.81,4.88-1.68l1.24-.44c2.63-1,5.24-2,7.82-3.07l1.2-.49c.94-.4,1.87-.82,2.81-1.23l1.62-.71q6.26-2.83,12.29-6.08l.64-.34c1-.56,2-1.13,3-1.7l1.14-.64q1.92-1.1,3.81-2.25l.32-.19q3.71-2.26,7.31-4.68l.74-.49c1-.64,1.89-1.3,2.83-2l1.1-.76q3.63-2.58,7.13-5.32l.51-.39c.94-.74,1.87-1.49,2.79-2.25l.92-.74q1.72-1.42,3.41-2.88l.23-.19c1-.9,2.06-1.81,3.08-2.73l.49-.43q1.55-1.41,3.06-2.85l.43-.4c1-.92,1.91-1.85,2.85-2.78l.56-.55h0c.53-.53,1-1.07,1.57-1.61s1.18-1.19,1.76-1.8,1.32-1.42,2-2.13c.42-.45.85-.9,1.26-1.36.56-.62,1.11-1.25,1.66-1.87s1-1.12,1.5-1.69q1.37-1.58,2.7-3.19l.38-.45c.52-.63,1-1.27,1.54-1.91s1-1.22,1.48-1.84q2.45-3.12,4.77-6.35c.3-.42.62-.84.92-1.26s.71-1,1.07-1.55c.55-.79,1.11-1.58,1.65-2.38l.45-.69q1.73-2.59,3.38-5.23,2.75-4.4,5.27-8.95c1.05-1.9,2.09-3.81,3.08-5.75q1.1-2.14,2.14-4.31,2-4.16,3.82-8.43l.16-.37Q383.23,271.73,384.78,267.54Zm-32.47-65.1c0,.44,0,.88,0,1.32,0,.85-.05,1.7-.1,2.55,0,.53-.06,1.06-.1,1.59,0,.75-.09,1.5-.14,2.24,0,.58-.1,1.15-.15,1.72s-.12,1.39-.19,2.09-.13,1.19-.2,1.79-.15,1.33-.23,2-.16,1.22-.25,1.84-.17,1.28-.27,1.91-.2,1.25-.3,1.88-.2,1.23-.3,1.84-.23,1.28-.35,1.91-.22,1.18-.34,1.77-.27,1.3-.41,1.94-.24,1.14-.37,1.7-.31,1.32-.46,2-.26,1.09-.4,1.63-.34,1.35-.52,2q-.21.78-.42,1.55-.28,1-.58,2l-.44,1.48q-.32,1-.65,2.09l-.45,1.39q-.35,1.07-.72,2.14l-.46,1.3q-.39,1.1-.8,2.19l-.46,1.2c-.29.75-.58,1.5-.88,2.25l-.44,1.09c-.32.78-.64,1.55-1,2.32l-.41.94c-.35.81-.71,1.62-1.08,2.42l-.36.77c-.4.85-.8,1.71-1.21,2.55l-.27.55c-.45.91-.9,1.82-1.37,2.72l-.13.25a154.27,154.27,0,0,1-24.46,34.47h0a154.5,154.5,0,0,1-36.09,28.43l-.23.13q-1.53.87-3.08,1.7l-.5.26q-1.43.76-2.87,1.49l-.7.35q-1.35.67-2.71,1.32l-.86.4q-1.29.6-2.6,1.19l-1,.43-2.51,1.07-1.1.45-2.44,1-1.2.46-2.39.88-1.28.45-2.35.79-1.36.44-2.31.72-1.42.42-2.28.64-1.48.4-2.26.58-1.53.37-2.25.51-1.58.34-2.24.45-1.62.31-2.25.39-1.65.27-2.25.33-1.67.23-2.28.27-1.67.19-2.33.22-1.65.15-2.43.16-1.58.1c-.89,0-1.78.07-2.67.11l-1.36.05q-2,.05-3.94.05h-.21q-2,0-3.94-.05l-1.36-.05c-.89,0-1.78-.06-2.67-.11l-1.58-.1-2.43-.16-1.65-.15-2.33-.22-1.67-.19-2.28-.27-1.67-.23-2.25-.33-1.65-.27-2.25-.39-1.62-.31-2.24-.45-1.58-.34-2.25-.51-1.53-.37-2.26-.58-1.48-.4-2.29-.64-1.42-.42-2.31-.72-1.36-.44-2.35-.79-1.28-.45-2.39-.88-1.2-.46-2.44-1-1.1-.45-2.51-1.07-1-.43q-1.3-.58-2.6-1.19l-.86-.4q-1.36-.65-2.71-1.32l-.7-.35q-1.44-.73-2.87-1.49l-.5-.26q-1.55-.83-3.08-1.7l-.23-.13a154.5,154.5,0,0,1-36.09-28.43h0A154.28,154.28,0,0,1,62,269.4l-.13-.25c-.47-.9-.92-1.81-1.37-2.73l-.27-.55c-.41-.84-.81-1.7-1.21-2.55l-.36-.77c-.37-.8-.73-1.61-1.08-2.43l-.41-.94c-.33-.77-.65-1.55-1-2.33l-.44-1.08c-.3-.75-.59-1.5-.88-2.25l-.46-1.2q-.41-1.09-.8-2.19l-.46-1.3q-.37-1.07-.72-2.14L52,245.33q-.33-1-.65-2.09l-.44-1.48q-.3-1-.58-2.05-.21-.77-.42-1.55-.27-1-.52-2c-.14-.54-.27-1.08-.4-1.63s-.31-1.32-.46-2-.25-1.13-.37-1.7-.28-1.29-.41-1.94-.23-1.18-.34-1.77-.24-1.27-.35-1.91-.21-1.22-.3-1.84-.2-1.25-.3-1.88-.18-1.28-.27-1.91-.17-1.22-.25-1.84-.15-1.33-.23-2-.14-1.19-.2-1.79-.13-1.39-.19-2.09-.1-1.15-.15-1.72c-.06-.75-.1-1.5-.14-2.24,0-.53-.07-1.06-.1-1.59,0-.85-.07-1.7-.1-2.55,0-.44,0-.88,0-1.32q0-1.94,0-3.89t0-3.89c0-.44,0-.88,0-1.32,0-.85.05-1.7.1-2.55,0-.53.07-1.06.1-1.59,0-.75.09-1.5.14-2.24,0-.58.1-1.15.15-1.72s.12-1.39.19-2.09.13-1.19.2-1.79.15-1.33.23-2,.16-1.22.25-1.84.17-1.28.27-1.91.2-1.25.3-1.88.2-1.23.3-1.84.23-1.28.35-1.92.22-1.18.34-1.77.27-1.3.41-1.95.24-1.14.37-1.7.31-1.32.46-2,.26-1.09.4-1.63.34-1.35.52-2q.21-.78.42-1.55.28-1,.58-2l.44-1.48q.32-1,.65-2.09l.45-1.39q.35-1.07.72-2.14l.46-1.3q.39-1.1.8-2.19l.45-1.19c.29-.75.58-1.51.88-2.26l.44-1.07c.32-.78.64-1.56,1-2.33l.41-.94c.35-.81.71-1.62,1.08-2.42l.36-.77c.4-.85.8-1.7,1.21-2.55l.27-.55c.45-.91.9-1.82,1.37-2.72l.13-.24A154.27,154.27,0,0,1,86.47,93.22h0a154.5,154.5,0,0,1,36.1-28.43l.2-.11q1.54-.88,3.11-1.72l.48-.25q1.43-.76,2.88-1.5l.68-.34q1.36-.68,2.73-1.33l.84-.39q1.3-.61,2.62-1.2l1-.42,2.53-1.08L140.7,56l2.46-1,1.18-.45,2.41-.89,1.26-.44,2.37-.8,1.34-.43,2.33-.72,1.41-.42,2.3-.65,1.47-.4,2.28-.58,1.52-.37,2.27-.51,1.56-.34,2.26-.45,1.6-.31,2.26-.39,1.63-.27,2.28-.33,1.64-.23,2.31-.28,1.64-.19,2.37-.22,1.61-.14,2.47-.16,1.53-.1c.91,0,1.83-.08,2.74-.11l1.28,0q2-.05,4.05-.05t4.05.05l1.28,0c.92,0,1.83.06,2.74.11l1.53.1,2.47.16,1.61.14,2.37.22,1.64.19,2.31.28,1.64.23,2.28.33,1.63.27,2.26.39,1.6.31,2.26.45,1.57.34,2.27.51,1.52.37,2.28.58,1.47.4,2.3.65,1.41.42,2.33.72,1.34.44,2.37.8,1.26.44,2.41.89,1.18.45,2.46,1,1.09.44L260,57.52l1,.42q1.32.59,2.62,1.2l.84.39q1.37.65,2.73,1.33l.68.34q1.45.73,2.88,1.5l.48.25q1.56.84,3.11,1.72l.21.12A154.54,154.54,0,0,1,335.1,127.7l.13.24c.47.9.92,1.82,1.37,2.73l.27.54c.41.85.81,1.7,1.21,2.56l.36.76c.37.8.73,1.61,1.08,2.42l.41.94c.33.77.65,1.55,1,2.33l.44,1.07c.3.75.59,1.5.88,2.26l.45,1.19q.41,1.09.8,2.19l.46,1.3q.37,1.07.72,2.14l.45,1.39q.33,1,.65,2.09l.44,1.48q.3,1,.58,2,.21.78.42,1.55.27,1,.52,2c.14.54.27,1.08.4,1.63s.31,1.32.46,2,.25,1.13.37,1.7.28,1.29.41,1.95.23,1.18.34,1.77.24,1.28.35,1.92.2,1.22.3,1.84.2,1.25.3,1.88.18,1.28.27,1.91.17,1.22.25,1.84.15,1.33.23,2,.14,1.19.2,1.79.13,1.39.19,2.09.1,1.15.15,1.72c.06.75.1,1.49.14,2.24,0,.53.07,1.06.1,1.59,0,.85.07,1.7.1,2.55,0,.44,0,.88,0,1.32q0,1.94,0,3.89T352.31,202.44Z"/></g><g id="letters"><g id="letters_SB" data-name="letters SB"><path class="cls-2" d="M125.92,32.24l-4.66,2.34-.74-1.47a3.31,3.31,0,0,0-.84-1.22.73.73,0,0,0-.74,0,.84.84,0,0,0-.49.72,2.52,2.52,0,0,0,.34,1.27,3.74,3.74,0,0,0,1,1.36,4.27,4.27,0,0,0,2,.5q4.38.36,5.9,1.24a8.79,8.79,0,0,1,3,3.79,8.5,8.5,0,0,1,1.08,3.37,4.27,4.27,0,0,1-1,2.62,8.07,8.07,0,0,1-2.88,2.29,7.88,7.88,0,0,1-3.83.94,4.25,4.25,0,0,1-2.87-1.06A11.74,11.74,0,0,1,119,45.73l-.65-1.3,4.66-2.34,1.21,2.41a3.64,3.64,0,0,0,.92,1.33.84.84,0,0,0,.86,0,.91.91,0,0,0,.54-.78,2.64,2.64,0,0,0-.36-1.32,4.25,4.25,0,0,0-1.61-2.06,16.69,16.69,0,0,0-3.25-.62,25.9,25.9,0,0,1-3.41-.61,4.85,4.85,0,0,1-1.81-1.09,8,8,0,0,1-1.7-2.4,8.24,8.24,0,0,1-1.1-3.62,4.3,4.3,0,0,1,1-2.57,8,8,0,0,1,2.75-2.12,8.69,8.69,0,0,1,3.66-1,3.94,3.94,0,0,1,2.64.72,9.92,9.92,0,0,1,2.13,3.13Z"/><path class="cls-3" d="M129.1,23.5l5.24-2a14.39,14.39,0,0,1,3.91-1,4,4,0,0,1,2.67.83A7.9,7.9,0,0,1,143.18,25a4.58,4.58,0,0,1,.4,2.75,4.1,4.1,0,0,1-1.78,1.92,4.13,4.13,0,0,1,3,.48,5.91,5.91,0,0,1,1.78,2.77l.72,1.93a8.37,8.37,0,0,1,.7,3.29A2.73,2.73,0,0,1,147,40,15.92,15.92,0,0,1,143,42l-6.08,2.28Zm6.59,1.58,1.73,4.62.52-.21q.77-.29.84-.76a7,7,0,0,0-.63-2.32,4,4,0,0,0-.69-1.3.91.91,0,0,0-.64-.32A4.23,4.23,0,0,0,135.69,25.09Zm2.95,7.85,2.18,5.81q1.1-.45,1.28-.89a2.75,2.75,0,0,0-.29-1.69l-.73-1.94q-.5-1.33-.88-1.51A2.58,2.58,0,0,0,138.64,32.94Z"/></g><g id="letters_UTG" data-name="letters UTG"><path class="cls-4" d="M259.46,20.2,255,34.33a26.64,26.64,0,0,1-1.23,3.33,4.87,4.87,0,0,1-1.54,1.71,4.93,4.93,0,0,1-2.47.92,7.63,7.63,0,0,1-3.06-.39,8.34,8.34,0,0,1-3.05-1.66,5.15,5.15,0,0,1-1.59-2.3,4.81,4.81,0,0,1-.15-2.38q.23-1.16,1.37-4.73l4-12.51,5.35,1.7-5,15.85a6.73,6.73,0,0,0-.42,1.82.6.6,0,0,0,.47.57.65.65,0,0,0,.79-.22,8.5,8.5,0,0,0,.78-2l5-15.58Z"/><path class="cls-5" d="M276,27.1l-1.77,4.07-3.06-1.33-7.06,16.28L259,43.89l7.06-16.28-3-1.32,1.77-4.07Z"/><path class="cls-6" d="M288.44,43l-4.9-2.74,1-1.76a10.23,10.23,0,0,0,1-2.16.83.83,0,0,0-1.25-.78,6.88,6.88,0,0,0-1.19,1.75l-5.2,9.29a6.51,6.51,0,0,0-.8,1.81.72.72,0,0,0,.42.78.82.82,0,0,0,1-.06,6.42,6.42,0,0,0,1.21-1.71l1.28-2.3-1-.55,1.65-2.94,5.74,3.21L281.6,55.28l-3.08-1.72.32-1.64a3.75,3.75,0,0,1-4.07.08,5.25,5.25,0,0,1-2-1.91,5.13,5.13,0,0,1-.78-2.44,5.64,5.64,0,0,1,.37-2.3,27,27,0,0,1,1.54-3.07l3.22-5.75a22.73,22.73,0,0,1,2.54-3.87,4.73,4.73,0,0,1,3-1.37,6.58,6.58,0,0,1,4.15.95,7.46,7.46,0,0,1,3.07,2.91,4.88,4.88,0,0,1,.64,3.19,13.45,13.45,0,0,1-1.6,3.87Z"/></g><g id="letters_UTG1" data-name="letters UTG1"><path class="cls-7" d="M361.76,110.48l-12.94,7.23a26.48,26.48,0,0,1-3.17,1.59,4.87,4.87,0,0,1-2.29.2,4.94,4.94,0,0,1-2.44-1,7.62,7.62,0,0,1-2-2.38,8.34,8.34,0,0,1-1.09-3.3,5.15,5.15,0,0,1,.42-2.77,4.81,4.81,0,0,1,1.52-1.84q1-.69,4.24-2.52l11.46-6.4,2.74,4.9-14.52,8.12a6.7,6.7,0,0,0-1.55,1,.6.6,0,0,0-.05.74.65.65,0,0,0,.72.38,8.5,8.5,0,0,0,1.91-.89l14.27-8Z"/><path class="cls-8" d="M369.18,126.73l-4.06,1.79-1.34-3.05-16.24,7.14-2.26-5.14,16.24-7.14-1.34-3,4.06-1.79Z"/><path class="cls-9" d="M367.5,146.82l-1.76-5.33,1.91-.63a10.25,10.25,0,0,0,2.21-.9.83.83,0,0,0-.39-1.41,6.86,6.86,0,0,0-2.06.48l-10.11,3.33a6.51,6.51,0,0,0-1.81.79.73.73,0,0,0-.22.86.82.82,0,0,0,.77.62,6.41,6.41,0,0,0,2-.44l2.5-.82-.36-1.08,3.2-1.06,2.06,6.24-11.31,3.73-1.11-3.35,1.35-1a3.75,3.75,0,0,1-3.05-2.69,5.25,5.25,0,0,1-.16-2.74,5.12,5.12,0,0,1,1.07-2.33,5.62,5.62,0,0,1,1.83-1.44,26.85,26.85,0,0,1,3.21-1.23l6.26-2.06a22.66,22.66,0,0,1,4.49-1.13,4.73,4.73,0,0,1,3.1,1,6.58,6.58,0,0,1,2.42,3.51,7.46,7.46,0,0,1,.29,4.21,4.88,4.88,0,0,1-1.69,2.79,13.44,13.44,0,0,1-3.79,1.77Z"/><path class="cls-10" d="M378.76,158.42l-21.6,5-1.23-5.25,11.58-2.71a21.48,21.48,0,0,0,3-.82,1.15,1.15,0,0,0,.62-.82,6.65,6.65,0,0,0-.29-2.41l-.12-.52,2.52-.59a9.75,9.75,0,0,0,4.81,5Z"/></g><g id="letters_MP" data-name="letters MP"><path class="cls-11" d="M369.81,269.06l-21-7.17,1.59-4.65,14.18,4.83L351,255.39l1.13-3.29,14.52,2.78-13.85-4.73,1.58-4.65,21,7.17-2.35,6.88q-2-.34-4.68-.89l-5.6-1.07,9.39,4.57Z"/><path class="cls-12" d="M367.06,275.39l-2.41,5.11a13,13,0,0,1-1.84,3,3.92,3.92,0,0,1-1.76,1.22,3.7,3.7,0,0,1-1.89,0,15.56,15.56,0,0,1-2.88-1.11l-1.75-.82a8.27,8.27,0,0,1-2.62-1.71,3,3,0,0,1-.68-2.05,7.23,7.23,0,0,1,.8-2.92l.64-1.36L344.6,271l2.4-5.08Zm-5.83,3.46-5.11-2.41-.19.37a1.28,1.28,0,0,0-.1,1.14,2.93,2.93,0,0,0,1.34,1l1.65.78a2.18,2.18,0,0,0,1.49.32Q360.77,279.84,361.24,278.85Z"/></g><g id="letters_MP1" data-name="letters MP1"><path class="cls-13" d="M277.64,369.34,267,349.87l4.31-2.35,7.19,13.14L273,346.58l3.05-1.67,8.83,11.85-7-12.84,4.31-2.35L292.85,361l-6.37,3.48q-1.24-1.6-2.85-3.82l-3.41-4.57,3.84,9.71Z"/><path class="cls-14" d="M271.23,372.18,266,374.29a13,13,0,0,1-3.41,1,3.92,3.92,0,0,1-2.12-.3,3.71,3.71,0,0,1-1.41-1.26,15.56,15.56,0,0,1-1.35-2.77l-.72-1.79a8.26,8.26,0,0,1-.76-3,3,3,0,0,1,.9-2,7.24,7.24,0,0,1,2.57-1.6l1.4-.56-3.33-8.29,5.21-2.1Zm-6.63-1.43-2.11-5.24-.39.14a1.28,1.28,0,0,0-.85.76,2.93,2.93,0,0,0,.33,1.62l.68,1.69q.42,1.05.87,1.24A2.13,2.13,0,0,0,264.61,370.76Z"/><path class="cls-15" d="M246.6,380.89l-6.38-21.25,5.16-1.55,3.42,11.39a21.45,21.45,0,0,0,1,2.93,1.15,1.15,0,0,0,.86.56,6.67,6.67,0,0,0,2.38-.44l.51-.15.74,2.48a9.75,9.75,0,0,0-4.66,5.11Z"/></g><g id="letters_BTN" data-name="letters BTN"><path class="cls-16" d="M19.9,151.39,21.45,146A14.37,14.37,0,0,1,23,142.26a4,4,0,0,1,2.26-1.65,7.9,7.9,0,0,1,4.24.34,4.59,4.59,0,0,1,2.44,1.32,4.1,4.1,0,0,1,.49,2.57,4.13,4.13,0,0,1,2.17-2.12,5.92,5.92,0,0,1,3.28.22l2,.57a8.37,8.37,0,0,1,3.06,1.4,2.73,2.73,0,0,1,1,1.94,16,16,0,0,1-.85,4.42l-1.79,6.24ZM25.1,147l4.74,1.36q.09-.35.14-.54.23-.79-.11-1.13a7,7,0,0,0-2.24-.88,4,4,0,0,0-1.45-.22.91.91,0,0,0-.64.32A4.2,4.2,0,0,0,25.1,147Zm8.06,2.31,6,1.71a2.35,2.35,0,0,0,0-1.56q-.24-.41-1.53-.78l-2-.57a3,3,0,0,0-1.74-.19Q33.55,148.16,33.16,149.35Z"/><path class="cls-17" d="M29.77,122.27l4.13,1.63L32.68,127l16.51,6.5-2.06,5.22-16.51-6.5-1.22,3.09-4.13-1.63Z"/><path class="cls-18" d="M37.77,105.93l19.78,10-2.23,4.39L45,118.4,54,123l-2.13,4.19-19.78-10,2.13-4.19,10.33,1.72-8.91-4.53Z"/></g><g id="letters_CO" data-name="letters CO"><path class="cls-19" d="M37.46,268.25l2.33,5.11L36.28,275a7.08,7.08,0,0,0-1.83,1,.77.77,0,0,0-.05.9.83.83,0,0,0,.83.59,7.92,7.92,0,0,0,2.07-.74l9.38-4.27a7.37,7.37,0,0,0,1.84-1,.8.8,0,0,0,.1-1,.79.79,0,0,0-.79-.54,8.29,8.29,0,0,0-2.19.79l-2.54,1.16-2.33-5.11.79-.36a17.5,17.5,0,0,1,4.64-1.6,5,5,0,0,1,3.17.86A7,7,0,0,1,52,268.83a8.09,8.09,0,0,1,.85,4.08,4.43,4.43,0,0,1-1.43,3,17.12,17.12,0,0,1-4.23,2.5l-5.9,2.69a29.55,29.55,0,0,1-3.34,1.35,5.11,5.11,0,0,1-2.5.09,5.34,5.34,0,0,1-2.5-1.28,8.79,8.79,0,0,1-2.72-6.81,4.69,4.69,0,0,1,1.36-2.95,15.15,15.15,0,0,1,4-2.36Z"/><path class="cls-20" d="M34.49,249.85q3.17-1.07,4.54-1.37a5.39,5.39,0,0,1,2.72.1,5.2,5.2,0,0,1,2.37,1.5,7.76,7.76,0,0,1,1.61,2.84,7.94,7.94,0,0,1,.44,3.14,5.14,5.14,0,0,1-.95,2.66,5.33,5.33,0,0,1-2.08,1.76q-1.25.59-4.49,1.68L35,263.38q-3.17,1.07-4.54,1.37a5.39,5.39,0,0,1-2.72-.1,5.2,5.2,0,0,1-2.37-1.5,7.76,7.76,0,0,1-1.61-2.84,8,8,0,0,1-.44-3.14,5.14,5.14,0,0,1,.95-2.66,5.34,5.34,0,0,1,2.08-1.76q1.25-.59,4.49-1.68Zm-5.12,7.65a7.08,7.08,0,0,0-1.82.79.66.66,0,0,0-.19.79.76.76,0,0,0,.55.53,5.08,5.08,0,0,0,2-.44l9.82-3.31A10.44,10.44,0,0,0,42,255a.67.67,0,0,0,.2-.82.69.69,0,0,0-.73-.53,11.28,11.28,0,0,0-2.4.64Z"/></g><g id="letters_HL" data-name="letters HL"><path class="cls-21" d="M127,372.7,135,352l5.23,2-3.38,8.68,1.57.61,3.38-8.68,5.23,2L139,377.38l-5.23-2,2.88-7.39-1.57-.61-2.88,7.39Z"/><path class="cls-22" d="M116,367.37l8-15.85L120.89,350l2-4,8.07,4.06L121,369.9Z"/></g></g></g></g></svg>