<svg xmlns="http://www.w3.org/2000/svg" xmlns:xlink="http://www.w3.org/1999/xlink" viewBox="0 0 400 400"><defs><style>.cls-1{fill:url(#Безымянный_градиент_25);}</style><radialGradient id="Безымянный_градиент_25" cx="200" cy="200" r="200" gradientUnits="userSpaceOnUse"><stop offset="0" stop-color="#020202"/><stop offset="0.49"/><stop offset="1" stop-color="#a7a7a7"/></radialGradient></defs><title>border</title><g id="Слой_2" data-name="Слой 2"><g id="chips"><g id="border"><path class="cls-1" d="M400,198.55A198.63,198.63,0,0,0,342.43,59.62h0l-1-1-1-1h0A198.63,198.63,0,0,0,201.45,0V0h-2.9V0A198.63,198.63,0,0,0,59.62,57.56h0l-1,1-1.17,1,.11.11A198.63,198.63,0,0,0,0,198.55H0v2.9H0A198.63,198.63,0,0,0,57.57,340.39h0l1,1h0l1,1h0A198.63,198.63,0,0,0,198.55,400v0h2.9v0a198.66,198.66,0,0,0,140-58.56h0l0,0,1-1h0A198.63,198.63,0,0,0,400,201.45h0V200h0v-1.45Zm-47.69,5.92c0,.65,0,1.31-.07,2s0,1.2-.08,1.8-.08,1.29-.12,1.94-.08,1.2-.12,1.8-.11,1.28-.16,1.92-.11,1.2-.17,1.8-.14,1.26-.21,1.9-.14,1.2-.21,1.8-.17,1.25-.25,1.88-.16,1.2-.25,1.8-.2,1.23-.3,1.85-.19,1.2-.3,1.8-.22,1.21-.34,1.82-.22,1.21-.35,1.81-.25,1.19-.38,1.79-.25,1.21-.39,1.81-.28,1.18-.42,1.77-.29,1.21-.44,1.81-.3,1.15-.46,1.73-.32,1.22-.49,1.82-.33,1.13-.49,1.7-.35,1.22-.53,1.82-.35,1.11-.53,1.67-.38,1.22-.58,1.82-.36,1.06-.55,1.59-.43,1.26-.65,1.88-.36,1-.55,1.47c-.24.65-.48,1.31-.73,2-.14.37-.3.74-.44,1.11q-.88,2.21-1.82,4.4c-.17.4-.34.8-.51,1.2-.28.62-.56,1.24-.85,1.85s-.44,1-.67,1.47-.58,1.18-.86,1.78-.49,1-.74,1.52-.59,1.14-.88,1.71-.53,1-.8,1.55-.61,1.11-.91,1.67-.56,1-.85,1.55-.63,1.09-.94,1.63-.6,1-.9,1.55-.65,1.06-1,1.59-.63,1-1,1.55-.67,1-1,1.55-.66,1-1,1.54-.69,1-1,1.52-.7,1-1.05,1.53l-1.06,1.48c-.37.51-.73,1-1.1,1.52l-1.09,1.45-1.14,1.5-1.13,1.43-1.19,1.48-1.15,1.39L315.86,299l-1.18,1.36-1.29,1.45-1.22,1.33-1.33,1.43-1.25,1.3-.85.87L264.2,262.15a88.62,88.62,0,0,0,25.19-60.7h62.95c0,.41,0,.82,0,1.23C352.32,203.28,352.3,203.87,352.29,204.47ZM304.52,310.85l-1.43,1.32-1.33,1.22-1.45,1.29L299,315.86l-1.47,1.24-1.39,1.15-1.49,1.19-1.42,1.12-1.51,1.15-1.45,1.09-1.53,1.11L287.22,325,285.67,326l-1.5,1-1.57,1-1.53,1-1.58,1-1.55,1-1.59.93-1.58.92-1.61.89-1.6.88-1.63.85-1.63.84-1.63.8-1.66.81-1.61.74-1.72.79-1.56.67q-1.74.75-3.49,1.45l-1.66.66-1.74.65-1.69.63-1.77.61-1.69.58-1.78.57-1.72.54-1.76.52-1.76.51-1.77.47-1.78.47-1.79.43-1.79.42-1.8.39-1.81.38-1.8.34-1.83.34-1.79.3-1.86.3-1.8.25-1.88.25-1.79.21-1.9.21-1.8.17-1.92.16-1.8.12-1.93.12-1.8.08-2,.07-1.79,0h-1.23v-63a88.82,88.82,0,0,0,60.7-25.1l44.55,44.55-.87.85Zm-109,41.44-2-.07-1.8-.08-1.93-.12-1.8-.12-1.92-.16-1.8-.17-1.9-.21-1.79-.21-1.88-.25-1.8-.25-1.86-.3-1.79-.3-1.83-.34-1.8-.34-1.81-.38-1.8-.39-1.79-.42-1.79-.43-1.78-.47-1.77-.47-1.76-.51-1.76-.52-1.72-.54-1.78-.57-1.69-.58-1.77-.61-1.69-.63-1.74-.65-1.66-.66q-1.76-.7-3.49-1.45l-1.56-.67-1.72-.79-1.61-.74-1.66-.81-1.63-.8-1.63-.84-1.63-.85-1.6-.88-1.61-.89-1.58-.92-1.59-.93-1.55-1-1.58-1-1.53-1-1.57-1-1.5-1L112.78,325l-1.47-1.05-1.53-1.11-1.45-1.09-1.51-1.15-1.42-1.12-1.49-1.19-1.39-1.15L101,315.86l-1.36-1.18-1.45-1.29-1.33-1.22-1.43-1.32-1.3-1.25-.87-.85,44.55-44.55a88.82,88.82,0,0,0,60.7,25.1v63h-1.23ZM89.15,304.52l-1.33-1.43-1.22-1.33-1.28-1.45L84.14,299l-1.24-1.47-1.15-1.39-1.19-1.48-1.13-1.43-1.14-1.5-1.09-1.45-1.1-1.52L75,287.22c-.36-.51-.7-1-1.05-1.53s-.69-1-1-1.51-.67-1-1-1.54-.67-1-1-1.55-.64-1-1-1.55-.65-1.06-1-1.59-.6-1-.9-1.55-.64-1.08-.94-1.63-.57-1-.85-1.55-.62-1.11-.91-1.67-.54-1-.8-1.55-.6-1.14-.88-1.71-.49-1-.74-1.52-.58-1.18-.86-1.78-.45-1-.67-1.47-.57-1.23-.85-1.85c-.18-.4-.34-.8-.51-1.2q-.95-2.19-1.82-4.4c-.15-.37-.3-.74-.44-1.11-.25-.65-.49-1.31-.73-2-.18-.49-.37-1-.55-1.47s-.43-1.25-.65-1.88-.37-1.06-.55-1.59-.39-1.22-.58-1.82-.36-1.11-.53-1.67-.36-1.21-.53-1.82-.33-1.13-.49-1.7-.32-1.21-.49-1.82-.31-1.15-.46-1.73-.29-1.21-.44-1.81-.28-1.18-.42-1.77-.26-1.21-.39-1.81-.26-1.2-.38-1.8-.23-1.2-.34-1.8-.23-1.22-.34-1.83-.2-1.2-.3-1.8-.2-1.23-.3-1.85-.17-1.2-.25-1.8-.17-1.25-.25-1.88-.14-1.2-.21-1.8-.14-1.26-.21-1.9-.11-1.2-.17-1.8-.11-1.28-.16-1.92-.08-1.2-.12-1.8-.08-1.29-.12-1.94-.06-1.2-.08-1.8-.05-1.3-.07-2,0-1.19,0-1.79c0-.41,0-.82,0-1.23h62.95a88.63,88.63,0,0,0,25.19,60.7L91.25,306.7l-.85-.87Zm-41.44-109c0-.65,0-1.3.07-2s0-1.2.08-1.8.08-1.29.12-1.93.08-1.2.12-1.8.11-1.27.16-1.91.11-1.2.17-1.8.14-1.26.21-1.89.14-1.2.21-1.8.17-1.25.25-1.87.16-1.2.26-1.8.2-1.23.3-1.84.19-1.21.3-1.81.22-1.22.34-1.82.22-1.2.34-1.8.25-1.2.38-1.79.25-1.21.39-1.81.28-1.17.42-1.76.29-1.21.44-1.82.3-1.15.45-1.73.32-1.22.49-1.83.33-1.13.49-1.69.35-1.22.53-1.83.35-1.11.53-1.66.38-1.22.58-1.83.36-1,.54-1.57.43-1.26.65-1.89.36-1,.53-1.44c.25-.67.49-1.33.74-2,.13-.33.26-.65.39-1q.94-2.38,2-4.72c.15-.34.28-.68.43-1,.28-.64.58-1.28.88-1.92.22-.47.42-.94.64-1.41s.59-1.21.89-1.82.47-1,.72-1.47.6-1.17.91-1.75.51-1,.78-1.5.63-1.15.94-1.72.54-1,.82-1.5.65-1.12,1-1.68.58-1,.88-1.5.66-1.09,1-1.63.61-1,.93-1.51.68-1.06,1-1.59.65-1,1-1.5.7-1,1.06-1.56.68-1,1-1.49.73-1,1.09-1.53l1.07-1.48,1.13-1.5,1.11-1.46,1.16-1.47,1.16-1.44,1.19-1.43,1.2-1.43,1.22-1.4,1.25-1.41,1.26-1.37,1.29-1.38,1.29-1.34.83-.85,44.54,44.54a88.62,88.62,0,0,0-25.19,60.7H47.66c0-.41,0-.82,0-1.23C47.68,196.72,47.7,196.13,47.71,195.53ZM95.48,89.16l1.44-1.33,1.32-1.21,1.46-1.3L101,84.15l1.49-1.26,1.37-1.14,1.51-1.21,1.4-1.1,1.54-1.17,1.42-1.07,1.57-1.13,1.44-1L114.36,74l1.46-1,1.61-1.05,1.48-1,1.64-1L122,69l1.66-1,1.51-.88,1.7-.94,1.52-.83,1.75-.91,1.5-.78,1.82-.89,1.48-.72,1.92-.88,1.41-.64c.82-.36,1.64-.71,2.46-1.06l1.78-.74c.83-.34,1.66-.68,2.5-1l1.44-.54,2-.74L150,56l1.91-.66,1.62-.52,1.87-.59,1.66-.49,1.86-.54,1.69-.45,1.86-.49,1.71-.41,1.87-.44,1.72-.37,1.88-.4,1.74-.33,1.89-.35,1.75-.29,1.91-.31,1.75-.25,1.92-.26,1.76-.21,1.93-.21,1.77-.16,1.94-.17,1.78-.12,2-.12,1.79-.08,2-.07,1.79,0h1.23v63a88.82,88.82,0,0,0-60.7,25.1L93.31,91.25l.88-.85Zm109-41.44,2,.07,1.79.08,2,.12,1.78.12,1.94.17,1.77.16,1.93.21,1.76.21,1.92.26,1.75.25,1.91.31,1.75.29,1.89.35,1.74.33,1.88.4,1.72.37,1.87.44,1.71.41,1.86.49,1.69.45,1.86.54,1.66.49,1.87.59,1.62.52L250,56l1.56.54,2,.74,1.44.54c.84.32,1.67.66,2.5,1l1.78.74c.82.35,1.65.69,2.46,1.06l1.41.64,1.92.88,1.48.72,1.82.89,1.5.78,1.75.91,1.52.83,1.7.94,1.51.88L278,69l1.5.92,1.64,1,1.48,1L284.18,73l1.46,1L287.23,75l1.44,1,1.57,1.13,1.42,1.07,1.54,1.17,1.4,1.1,1.51,1.21,1.37,1.14L299,84.15l1.34,1.17,1.46,1.3,1.32,1.21,1.44,1.33,1.3,1.24.88.85L262.15,135.8a88.82,88.82,0,0,0-60.7-25.1v-63h1.23ZM310.86,95.49l1.29,1.38,1.26,1.37,1.25,1.41,1.22,1.4,1.2,1.43,1.19,1.43,1.16,1.44,1.16,1.47,1.11,1.46,1.13,1.5,1.07,1.48c.37.51.73,1,1.09,1.53l1,1.49c.36.52.71,1,1.06,1.56s.65,1,1,1.5.69,1.06,1,1.6.62,1,.93,1.51.67,1.08,1,1.63.59,1,.88,1.5.65,1.11,1,1.68.55,1,.82,1.5.63,1.14.94,1.72.52,1,.78,1.5.61,1.17.91,1.75.48,1,.72,1.47.6,1.21.89,1.82.43.94.64,1.41c.29.64.59,1.28.88,1.92.15.34.29.67.43,1q1,2.34,2,4.72c.13.32.26.65.39,1,.26.66.5,1.33.74,2,.18.48.36,1,.53,1.44s.44,1.26.65,1.89.37,1,.54,1.57.39,1.22.58,1.83.36,1.11.53,1.66.36,1.22.53,1.83.33,1.13.49,1.69.33,1.22.49,1.83.31,1.15.45,1.73.29,1.21.44,1.82.28,1.17.42,1.76.26,1.21.39,1.82.26,1.19.38,1.79.23,1.21.35,1.81.23,1.21.34,1.82.2,1.21.3,1.81.2,1.23.3,1.84.17,1.2.26,1.8.17,1.25.25,1.87.14,1.2.21,1.8.14,1.26.21,1.89.11,1.2.17,1.8.11,1.27.16,1.91.08,1.2.12,1.8.08,1.29.12,1.93.06,1.2.08,1.8.05,1.3.07,2,0,1.19,0,1.79c0,.41,0,.82,0,1.23H289.39a88.62,88.62,0,0,0-25.19-60.7l44.54-44.54.83.85ZM261.13,261.13A86.33,86.33,0,1,1,286.5,200,86,86,0,0,1,261.13,261.13Zm94.12-62.58c0-.42,0-.84,0-1.25,0-.61,0-1.23,0-1.84s0-1.33-.07-2,0-1.22-.08-1.82-.08-1.33-.12-2-.08-1.2-.12-1.8-.11-1.34-.17-2-.1-1.18-.16-1.77-.15-1.34-.22-2-.13-1.17-.2-1.75-.18-1.35-.27-2-.16-1.15-.24-1.72-.22-1.36-.33-2-.18-1.12-.28-1.68-.25-1.37-.38-2.06-.2-1.09-.31-1.64c-.14-.7-.29-1.39-.44-2.09-.11-.53-.22-1.06-.34-1.58-.16-.71-.33-1.41-.5-2.12-.12-.51-.24-1-.37-1.53-.18-.72-.38-1.44-.57-2.16-.13-.48-.25-1-.39-1.45-.21-.75-.43-1.5-.65-2.24-.13-.45-.26-.9-.39-1.35-.24-.79-.49-1.57-.75-2.36-.13-.4-.25-.8-.38-1.2-.29-.86-.59-1.72-.89-2.58-.11-.31-.21-.63-.33-.95q-.56-1.56-1.15-3.1l-.15-.4q-1.35-3.51-2.88-6.95l-.18-.38c-.45-1-.91-2-1.38-3l-.43-.88c-.4-.83-.8-1.66-1.21-2.48l-.56-1.08c-.38-.75-.76-1.49-1.16-2.23-.22-.41-.44-.81-.67-1.22-.38-.69-.75-1.38-1.13-2.06-.24-.43-.5-.86-.74-1.29-.38-.65-.75-1.3-1.14-1.95l-.81-1.33c-.38-.62-.76-1.25-1.15-1.86l-.87-1.35c-.39-.6-.77-1.2-1.17-1.8l-.93-1.36c-.4-.58-.79-1.16-1.19-1.74l-1-1.37c-.4-.56-.81-1.13-1.22-1.68l-1-1.38c-.41-.55-.82-1.09-1.24-1.63l-1.09-1.37-1.27-1.59-1.14-1.37L318,99.14l-1.18-1.36-1.33-1.5-1.23-1.35L313,93.48l-1.28-1.34-.86-.9,14.76-14.76,14.82-14.82a195.77,195.77,0,0,1,56.7,136.89H355.25ZM338.34,59.61l-1.61,1.61-28,28-.93-.89-1.3-1.24L305,85.67l-1.31-1.2-1.53-1.36L300.87,82l-1.58-1.33L298,79.53l-1.62-1.3L295,77.17l-1.67-1.27-1.34-1-1.72-1.25-1.34-1-1.77-1.22-1.33-.91L284,69.37l-1.32-.85-1.9-1.17-1.29-.79-2-1.16-1.25-.73c-.69-.39-1.39-.77-2.09-1.15L273,62.87c-.75-.4-1.5-.79-2.26-1.17l-1.06-.55c-.84-.42-1.68-.83-2.53-1.24l-.83-.4q-1.53-.72-3.08-1.41l-.31-.14q-3.44-1.52-6.95-2.88l-.38-.14q-1.55-.59-3.12-1.16l-.94-.33c-.86-.3-1.72-.6-2.59-.89l-1.2-.38-2.36-.75L244,51l-2.24-.65L240.33,50l-2.17-.57-1.52-.37-2.13-.5-1.58-.34-2.08-.44-1.64-.31-2.06-.38-1.68-.28-2-.33-1.71-.24-2-.27-1.75-.2-2-.22-1.78-.17-2-.17-1.8-.12-2-.12-1.82-.08-2-.07-1.84,0-1.25,0h0V2.91A195.78,195.78,0,0,1,338.34,59.61ZM198.55,2.91V44.74h0l-1.25,0-1.84,0-2,.07-1.82.08-2,.12-1.8.12-2,.17-1.78.17-2,.22-1.75.2-2,.27-1.71.24-2,.33-1.68.28-2.06.38-1.64.31-2.09.44-1.58.34-2.13.5-1.52.37-2.17.57-1.45.39L156,51l-1.34.39-2.36.75-1.2.38c-.87.29-1.73.59-2.59.89l-.94.33q-1.57.56-3.12,1.16l-.38.14q-3.51,1.35-6.95,2.88l-.31.14q-1.55.69-3.08,1.41l-.83.4c-.85.41-1.69.81-2.53,1.24l-1.06.55c-.75.39-1.51.77-2.26,1.17l-1.19.65c-.7.38-1.4.76-2.09,1.15l-1.25.73-2,1.16-1.29.79-1.9,1.17-1.32.85-1.83,1.19-1.33.9-1.78,1.22-1.34,1L108,74.89l-1.34,1L105,77.17l-1.34,1.06L102,79.53l-1.33,1.11L99.13,82l-1.32,1.15-1.53,1.36L95,85.67l-1.49,1.39-1.3,1.24-.93.89-28-28-1.61-1.61A195.76,195.76,0,0,1,198.55,2.91ZM59.61,61.66,74.77,76.83,89.19,91.25l-.86.9L87,93.48,85.7,94.94l-1.23,1.35-1.33,1.5L82,99.14l-1.3,1.54-1.14,1.37-1.27,1.59L77.16,105c-.42.54-.83,1.09-1.24,1.63l-1,1.38c-.41.56-.81,1.12-1.22,1.68l-1,1.37c-.4.58-.8,1.16-1.2,1.74l-.93,1.36c-.4.6-.78,1.2-1.17,1.8l-.87,1.35c-.39.62-.77,1.24-1.15,1.86-.27.44-.55.88-.81,1.33-.39.65-.76,1.3-1.14,1.95-.25.43-.5.85-.74,1.29-.39.68-.76,1.37-1.13,2.06-.22.41-.45.81-.67,1.22-.39.74-.78,1.49-1.16,2.23l-.56,1.08c-.41.82-.81,1.65-1.21,2.48l-.43.88q-.71,1.5-1.38,3l-.18.38q-1.52,3.44-2.88,6.95l-.15.4q-.59,1.55-1.15,3.1c-.11.31-.22.63-.33.95-.3.86-.6,1.72-.89,2.58-.13.4-.25.8-.38,1.2-.25.79-.51,1.57-.75,2.36-.14.45-.26.9-.39,1.35-.22.75-.44,1.49-.65,2.24-.13.48-.26,1-.39,1.45-.19.72-.39,1.44-.57,2.16-.13.51-.25,1-.37,1.53-.17.71-.34,1.41-.5,2.12-.12.53-.23,1.06-.34,1.58-.15.69-.3,1.39-.44,2.09-.11.54-.21,1.09-.31,1.63s-.26,1.37-.38,2.06-.19,1.12-.28,1.68-.22,1.36-.33,2-.16,1.14-.24,1.72-.19,1.35-.27,2-.14,1.17-.2,1.75-.15,1.34-.22,2-.11,1.18-.16,1.77-.12,1.34-.17,2-.08,1.2-.12,1.8-.09,1.33-.12,2-.06,1.21-.08,1.82-.05,1.33-.07,2,0,1.23,0,1.84c0,.42,0,.84,0,1.25H2.91A195.77,195.77,0,0,1,59.61,61.66ZM44.75,201.45c0,.42,0,.84,0,1.25,0,.61,0,1.23,0,1.84s0,1.33.07,2,0,1.21.08,1.82.08,1.34.12,2,.08,1.19.12,1.79.11,1.34.17,2,.1,1.18.16,1.76.15,1.35.22,2,.13,1.16.2,1.74.18,1.36.28,2,.16,1.13.24,1.7.22,1.37.33,2.06.18,1.11.27,1.66.26,1.39.39,2.08c.1.54.2,1.08.31,1.61.14.71.29,1.41.45,2.11.11.52.22,1,.34,1.56.16.72.34,1.43.51,2.15.12.5.24,1,.36,1.5.19.74.38,1.47.58,2.21.13.47.25.94.38,1.41.21.77.44,1.53.66,2.29.13.43.25.87.38,1.3.25.81.51,1.62.77,2.42.12.38.24.76.36,1.14.3.9.61,1.79.92,2.68.1.28.19.57.29.85q.59,1.64,1.21,3.27l.09.23q1.36,3.51,2.88,7l.09.2q.71,1.6,1.46,3.19l.38.78c.41.86.83,1.72,1.26,2.58l.52,1c.4.77.79,1.55,1.2,2.31l.63,1.15c.39.71.77,1.42,1.17,2.12l.71,1.23c.39.67.77,1.34,1.17,2l.79,1.28c.39.64.78,1.27,1.18,1.91l.85,1.32c.4.61.79,1.22,1.19,1.83l.9,1.33c.4.59.8,1.18,1.22,1.77l1,1.35c.41.57.82,1.14,1.24,1.71l1,1.35c.42.55.84,1.11,1.26,1.66l1.07,1.36,1.28,1.6,1.12,1.35L82,300.86l1.18,1.35,1.33,1.51,1.23,1.34,1.36,1.46,1.28,1.33.86.9L69.51,328.44l-9.9,9.9A195.78,195.78,0,0,1,2.91,201.45ZM76.48,325.57l14.76-14.76h0l.89.86L93.49,313l1.44,1.33,1.37,1.26,1.47,1.3,1.39,1.21,1.5,1.26,1.41,1.17,1.53,1.23,1.43,1.13,1.57,1.2,1.44,1.08,1.61,1.17,1.44,1,1.66,1.14,1.45,1,1.7,1.11,1.45.93,1.76,1.09,1.43.88,1.83,1.07,1.4.81,1.9,1,1.37.75,2,1,1.3.67c.74.37,1.48.73,2.22,1.08l1.13.55c.88.42,1.76.82,2.65,1.21l.74.34q3.42,1.52,6.92,2.87l.77.29c.91.34,1.82.69,2.73,1l1.16.4c.79.28,1.58.55,2.37.82l1.33.42,2.23.71,1.43.42,2.16.62,1.51.4,2.11.56,1.57.38,2.08.49,1.62.35,2.05.43,1.66.32,2,.38,1.69.28,2,.32,1.72.24,2,.27,1.76.21,2,.22,1.78.17,2,.17,1.8.12,2,.12,1.82.08,2,.07,1.84,0,1.25,0h0v41.83a195.78,195.78,0,0,1-136.89-56.7Zm125,29.69h0l1.25,0,1.84,0,2-.07,1.82-.08,2-.12,1.8-.12,2-.17,1.78-.17,2-.22,1.76-.21,2-.27,1.72-.24,2-.32,1.69-.28,2-.38,1.66-.32,2.05-.43,1.62-.35,2.08-.49,1.57-.38,2.11-.56,1.51-.4,2.16-.62,1.43-.42,2.23-.71,1.33-.42c.8-.26,1.58-.54,2.37-.82l1.16-.4c.91-.33,1.82-.67,2.73-1l.77-.29q3.49-1.35,6.92-2.87l.74-.34c.89-.4,1.77-.8,2.65-1.21l1.13-.55c.74-.36,1.48-.71,2.22-1.08l1.3-.67,2-1,1.37-.75,1.9-1,1.4-.81,1.83-1.07,1.43-.88,1.76-1.09,1.45-.93,1.7-1.11,1.45-1,1.66-1.14,1.44-1,1.61-1.17L293.4,324l1.57-1.2,1.43-1.13,1.53-1.23,1.41-1.17,1.5-1.26,1.39-1.21,1.47-1.3,1.37-1.26,1.44-1.33,1.35-1.29.89-.86h0l14.73,14.73,14.85,14.85a195.77,195.77,0,0,1-136.89,56.7Zm138.94-16.92-28-28-1.6-1.6.86-.9,1.28-1.33,1.36-1.46,1.23-1.34,1.33-1.51,1.18-1.35,1.31-1.56,1.12-1.35,1.28-1.6,1.07-1.36c.43-.55.84-1.1,1.26-1.66l1-1.35c.42-.57.83-1.14,1.24-1.71l1-1.35c.41-.59.81-1.18,1.22-1.77l.91-1.33c.4-.61.8-1.22,1.19-1.83l.85-1.32c.4-.63.79-1.27,1.18-1.91l.79-1.28c.4-.66.78-1.34,1.17-2l.71-1.23c.4-.7.78-1.41,1.17-2.12l.63-1.15c.41-.77.8-1.54,1.2-2.31l.52-1c.43-.85.85-1.72,1.26-2.58l.38-.78q.75-1.59,1.46-3.19l.09-.2q1.53-3.44,2.88-7l.09-.23q.62-1.63,1.21-3.27c.1-.28.19-.57.29-.85.31-.89.62-1.78.92-2.68.12-.38.24-.76.36-1.14.26-.81.52-1.61.77-2.42.13-.43.25-.86.38-1.3.22-.76.45-1.53.66-2.29.13-.47.25-.94.38-1.41.2-.73.39-1.47.58-2.21.13-.5.24-1,.36-1.5.17-.71.35-1.43.51-2.15.12-.52.22-1,.34-1.56.15-.7.3-1.41.45-2.11.11-.54.21-1.08.31-1.61.13-.69.26-1.39.39-2.08s.18-1.1.27-1.66.23-1.37.33-2.06.16-1.13.24-1.7.19-1.36.28-2,.14-1.16.2-1.74.15-1.35.22-2,.11-1.18.16-1.76.12-1.34.17-2,.08-1.19.12-1.79.09-1.34.12-2,.06-1.21.08-1.82.05-1.33.07-2,0-1.23,0-1.84c0-.42,0-.84,0-1.25h41.84A195.75,195.75,0,0,1,340.39,338.34Z"/></g></g></g></svg>