<svg xmlns="http://www.w3.org/2000/svg" viewBox="0 0 309.62 309.62"><defs><style>.cls-1{fill:red;}.cls-1,.cls-2{stroke:red;stroke-miterlimit:10;stroke-width:2px;}.cls-2{fill:#eade00;}.cls-3{fill:#b20000;}.cls-4{font-size:102.54px;fill:#fff;font-family:Impact, Impact;letter-spacing:0.12em;}.cls-5{letter-spacing:0.1em;}</style></defs><title>content</title><g id="Слой_2" data-name="Слой 2"><g id="chips"><ellipse id="center" cx="154.81" cy="154.81" rx="87.95" ry="87.86"/><g id="colors"><g id="full_colors"><path id="full_SB" data-name="full SB" class="cls-1" d="M154.81,67V1A153.33,153.33,0,0,0,46,46l46.6,46.6A87.73,87.73,0,0,1,154.81,67Z"/><path id="full_UTG" data-name="full UTG" class="cls-1" d="M217,92.65,263.57,46A153.33,153.33,0,0,0,154.81,1V67A87.73,87.73,0,0,1,217,92.65Z"/><path id="full_BTN" data-name="full BTN" class="cls-1" d="M92.65,92.65,46,46A153.33,153.33,0,0,0,1,154.81H66.86A87.53,87.53,0,0,1,92.65,92.65Z"/><path id="full_CO" data-name="full CO" class="cls-1" d="M66.86,154.81H1A153.33,153.33,0,0,0,46,263.57L92.65,217A87.53,87.53,0,0,1,66.86,154.81Z"/><path id="full_HL" data-name="full HL" class="cls-1" d="M92.65,217,46,263.57a153.33,153.33,0,0,0,108.76,45v-66A87.73,87.73,0,0,1,92.65,217Z"/><path id="full_MP1" data-name="full MP1" class="cls-1" d="M154.81,242.66v66a153.33,153.33,0,0,0,108.76-45L217,217A87.73,87.73,0,0,1,154.81,242.66Z"/><path id="full_UTG1" data-name="full UTG1" class="cls-1" d="M263.57,46,217,92.65a87.53,87.53,0,0,1,25.8,62.16h65.86A153.33,153.33,0,0,0,263.57,46Z"/><path id="full_MP" data-name="full MP" class="cls-2" d="M242.76,154.81A87.53,87.53,0,0,1,217,217l46.6,46.6a153.33,153.33,0,0,0,45-108.76H242.76Z"/></g><g id="half_colors" data-name="half colors"><path id="half_SB" data-name="half SB" class="cls-3" d="M154.81,67V33.27a121.16,121.16,0,0,0-85.94,35.6L92.65,92.65A87.73,87.73,0,0,1,154.81,67Z"/><path id="half_UTG" data-name="half UTG" class="cls-3" d="M217,92.65l23.78-23.78a121.16,121.16,0,0,0-85.94-35.6V67A87.73,87.73,0,0,1,217,92.65Z"/><path id="half_BTN" data-name="half BTN" class="cls-3" d="M92.65,92.65,68.87,68.87a121.16,121.16,0,0,0-35.6,85.94H66.86A87.53,87.53,0,0,1,92.65,92.65Z"/><path id="half_CO" data-name="half CO" class="cls-3" d="M66.86,154.81H33.27a121.16,121.16,0,0,0,35.6,85.94L92.65,217A87.53,87.53,0,0,1,66.86,154.81Z"/><path id="half_HL" data-name="half HL" class="cls-3" d="M92.65,217,68.87,240.75a121.16,121.16,0,0,0,85.94,35.6V242.66A87.73,87.73,0,0,1,92.65,217Z"/><path id="half_MP1" data-name="half MP1" class="cls-3" d="M154.81,242.66v33.68a121.16,121.16,0,0,0,85.94-35.6L217,217A87.73,87.73,0,0,1,154.81,242.66Z"/><path id="half_UTG1" data-name="half UTG1" class="cls-3" d="M242.76,154.81h33.59a121.16,121.16,0,0,0-35.6-85.94L217,92.65A87.53,87.53,0,0,1,242.76,154.81Z"/><path id="half_MP" data-name="half MP" class="cls-3" d="M242.76,154.81A87.53,87.53,0,0,1,217,217l23.78,23.78a121.16,121.16,0,0,0,35.6-85.94H242.76Z"/></g><text class="cls-4" transform="translate(96.01 192.76)">A<tspan class="cls-5" x="64.88" y="0">A</tspan></text></g></g></g></svg>