{% load chips_tag %}
{% load mathfilters %}
<svg version="1.1" id="chips" xmlns="http://www.w3.org/2000/svg"
     xmlns:xlink="http://www.w3.org/1999/xlink" x="0px" y="0px"
     viewBox="0 0 400 400" style="enable-background:new 0 0 400 400;width: 400px;height: 400px;" xml:space="preserve">
    <style>
        {% for value in colors %}
        .color_{{ value.id }}_sector{fill:{{ value.color }};}
        {% endfor %}
        .result {
    height: 100vh;
    width: 100vw;
    min-height: 750px;
    display: flex;
    /*flex-direction: column;*/
    /*justify-content: space-between;*/
    flex: 2;

    flex-wrap: nowrap;
    justify-content: space-between;
    flex-direction: column;
    align-items: center;
}
.legend {
    flex:1;
    padding: 50px;
}
.legend-item {
    border-radius: 5px;
    margin: 15px 0;
    padding: 5px;
}
.row {

    border-collapse: collapse;
    clear: both;

    display: flex;
    justify-content: space-around;
    margin-top: -13%;
}
.row:nth-child(1) {
    margin:0;
}
.item {
    padding: 2px;
    display: inline-block;
    z-index: 1;
    position: relative;
}
.item svg {
    width: 100%;
    height: auto;
}
.item:hover {
    z-index: 100;
    cursor: pointer;
}
.white_sector {
    fill: #FFFFFF;
}

.text_NS {
    fill: #000000;
}

.text_OS {
    fill: #FFFFFF;
}

.text_TS {
    fill: #000000;
}

.inner_circle_NS {
    fill: #C0C0C0;
}

.inner_circle_OS {
    fill: #000000;
}

.inner_circle_TS {
    fill: #FFFFFF;
}
.st0 {
    fill: #FF0000;
    stroke: #FF0000;
    stroke-width: 2;
    stroke-miterlimit: 10;
}
.st1 {
    fill: #EADE00;
    stroke: #FF0000;
    stroke-width: 2;
    stroke-miterlimit: 10;
}

.st2 {
    fill: #B20000;
}
.st4 {
    font-family: 'Impact';
}

.st5 {
    font-size: 102.5393px;
}

.st6 {
    letter-spacing: 10;
    letter-soacing: 10;
}

.st7 {
    fill: url(#SVGID_1_);
}

.st8 {
    fill: url(#SVGID_2_);
}

.st9 {
    fill: url(#SVGID_3_);
}

.st10 {
    fill: url(#SVGID_4_);
}

.st11 {
    fill: url(#SVGID_5_);
}

.st12 {
    fill: url(#SVGID_6_);
}

.st13 {
    fill: url(#SVGID_7_);
}

.st14 {
    fill: url(#SVGID_8_);
}

.st15 {
    fill: url(#SVGID_9_);
}

.st16 {
    fill: url(#SVGID_10_);
}

.st17 {
    fill: url(#SVGID_11_);
}

.st18 {
    fill: url(#SVGID_12_);
}

.st19 {
    fill: url(#SVGID_13_);
}

.st20 {
    fill: url(#SVGID_14_);
}

.st21 {
    fill: url(#SVGID_15_);
}

.st22 {
    fill: url(#SVGID_16_);
}

.st23 {
    fill: url(#SVGID_17_);
}

.st24 {
    fill: url(#SVGID_18_);
}

.st25 {
    fill: url(#SVGID_19_);
}

.st26 {
    fill: url(#SVGID_20_);
}

.st27 {
    fill: url(#SVGID_21_);
}
.st28 {
    fill: url(#SVGID_22_);
}
.st29 {
    fill: url(#border_x5F_content_1_);
}
    </style>
                                <g id="colors">
                                        {% selector_color_v2 value True %}
                                    <ellipse id="center_1_"
                                             class="{% if value.chip.suit == 'NS' %}inner_circle_NS{% elif value.chip.suit == 'OS' %}inner_circle_OS{% else %}inner_circle_TS{% endif %}"
                                             cx="200" cy="200" rx="88" ry="87.9"/>
                                    <text id="AT_1_"
                                          transform="matrix(1 0 0 1 {{ 142.9828|add:value.chip.delta_x }} {{ 236.9528|add:value.chip.delta_y }})" x="58" y="0" text-anchor="middle"
                                          class="{% if value.chip.suit == 'NS' %}text_NS{% elif value.chip.suit == 'OS' %}text_OS{% else %}text_TS{% endif %} st4 st5 st6">{{ value.chip.name }}</text>
                                    </g>
    <g id="ring">
                                                <g id="ring_x5F_content_1_">

                                                        <radialGradient id="SVGID_1_" cx="199.0052" cy="183.4756"
                                                                        r="205.3466"
                                                                        gradientTransform="matrix(0.9984 0 0 0.9382 1.3179 27.8599)"
                                                                        gradientUnits="userSpaceOnUse">
                                                        <stop offset="0" style="stop-color:#FFFFFF"/>
                                                            <stop offset="0.6568" style="stop-color:#FFFFFF"/>
                                                            <stop offset="1" style="stop-color:#A1A1A1"/>
                                                    </radialGradient>
                                                    <path class="st7" d="M386.2,269c0.1-0.2,0.2-0.5,0.3-0.7c0.5-1.4,1-2.7,1.4-4.1c0.1-0.2,0.1-0.3,0.2-0.5c0.2-0.6,0.4-1.2,0.6-1.8
                                                        c0.4-1.4,0.9-2.7,1.3-4.1c1.3-4.2,2.4-8.5,3.4-12.8c0,0,0-0.1,0-0.1c0.6-2.7,1.2-5.3,1.7-8c0.1-0.6,0.2-1.1,0.3-1.7
                                                        c1.1-5.9,1.8-12,2.4-18.1c0.1-0.6,0.1-1.2,0.2-1.8c0.1-1.1,0.1-2.2,0.2-3.3c0-0.6,0.1-1.2,0.1-1.8c0.2-3.4,0.3-6.8,0.3-10.2
                                                        c0,0,0,0,0,0v0c0,0,0,0,0,0c0-1.9,0-3.7-0.1-5.5c-0.2-6-0.6-11.8-1.3-17.7c-0.2-1.6-0.4-3.2-0.6-4.8c-0.6-4-1.2-8-2.1-12
                                                        c-0.2-0.8-0.3-1.5-0.5-2.3c-0.2-0.9-0.4-1.7-0.6-2.6c-1-4.3-2.1-8.5-3.4-12.7c-0.2-0.5-0.3-1-0.5-1.5c-0.2-0.6-0.4-1.3-0.6-1.9
                                                        c-0.3-0.9-0.6-1.8-0.9-2.8c-0.4-1.1-0.7-2.1-1.1-3.2c-0.2-0.5-0.3-0.9-0.5-1.4c-0.9-2.5-1.9-5-2.9-7.4c-0.2-0.5-0.4-1.1-0.6-1.6
                                                        c-1.8-4.4-3.8-8.6-6-12.8c0-0.1-0.1-0.2-0.1-0.3c-0.7-1.3-1.4-2.7-2.1-4c0-0.1-0.1-0.2-0.1-0.3c-0.5-1-1.1-2-1.6-2.9
                                                        c-0.2-0.4-0.5-0.8-0.7-1.3C338,41.6,273.7,1.5,200,1.5c-84,0-155.7,52.1-184.8,125.7c-1.2,3-2.3,6-3.3,9.1s-2,6.2-2.9,9.3
                                                        c-4.9,17.3-7.5,35.5-7.5,54.4v0c0,0.4,0,0.9,0,1.3c0,1.5,0,3,0.1,4.5c0.2,7.6,0.9,15.1,1.9,22.5c0.2,1.5,0.5,3.1,0.7,4.6
                                                        c0.4,2.4,0.8,4.8,1.3,7.1c0.1,0.6,0.3,1.3,0.4,1.9c0.2,1,0.4,2,0.6,2.9c0.1,0.3,0.2,0.6,0.2,0.9c0.3,1.3,0.6,2.6,0.9,3.8
                                                        c0.3,1.3,0.7,2.6,1,3.8c0.1,0.3,0.2,0.6,0.2,0.9c0.2,0.8,0.5,1.6,0.7,2.3c0.2,0.8,0.5,1.6,0.7,2.4c0.4,1.3,0.8,2.5,1.2,3.8
                                                        c0.1,0.3,0.2,0.6,0.3,0.9c0.4,1.2,0.8,2.3,1.2,3.5c0.1,0.4,0.3,0.8,0.4,1.1c1.1,2.9,2.2,5.8,3.4,8.7c0,0.1,0.1,0.2,0.1,0.3
                                                        c0.4,1,0.9,2.1,1.4,3.1c0.2,0.4,0.4,0.9,0.6,1.3c0.4,1,0.9,2,1.4,3c0.2,0.5,0.4,0.9,0.7,1.4c0.5,0.9,0.9,1.9,1.4,2.8
                                                        c0.2,0.5,0.5,1,0.7,1.5c0.6,1.2,1.3,2.5,2,3.7c0.1,0.2,0.2,0.4,0.3,0.5c0.5,0.9,1,1.8,1.5,2.8c0.3,0.5,0.5,1,0.8,1.4
                                                        c0.5,0.9,1.1,1.8,1.6,2.7c0.3,0.5,0.5,0.9,0.8,1.4c1.6,2.6,3.2,5.2,4.9,7.7c0.1,0.1,0.2,0.2,0.2,0.3c0.8,1.2,1.6,2.3,2.4,3.5
                                                        c0.1,0.2,0.2,0.3,0.3,0.5c0.7,1,1.4,1.9,2.1,2.9c0.2,0.3,0.5,0.7,0.7,1c0.8,1.1,1.6,2.1,2.4,3.1c0.2,0.2,0.3,0.4,0.5,0.7
                                                        c0.6,0.8,1.2,1.6,1.9,2.3c0.4,0.5,0.7,0.9,1.1,1.4c1.9,2.3,3.9,4.6,6,6.9c0.1,0.1,0.2,0.2,0.3,0.3c1.9,2.1,3.9,4.2,5.9,6.2
                                                        c0.2,0.2,0.4,0.4,0.7,0.7l0,0c0,0,0,0,0,0l0,0c0.5,0.5,1.1,1.1,1.6,1.6c0.6,0.6,1.2,1.2,1.8,1.7c0.6,0.6,1.3,1.2,1.9,1.8
                                                        c0.5,0.5,1.1,1,1.6,1.5c0.7,0.6,1.4,1.3,2.2,1.9c0.5,0.4,0.9,0.8,1.4,1.3c3.3,2.9,6.8,5.6,10.3,8.3c0.3,0.2,0.6,0.4,0.9,0.7
                                                        c2.3,1.7,4.7,3.4,7,5c0.2,0.2,0.5,0.3,0.7,0.5c0.1,0.1,0.2,0.1,0.3,0.2c2.3,1.6,4.7,3.1,7.1,4.6c0.2,0.1,0.4,0.3,0.7,0.4
                                                        c0.1,0,0.1,0.1,0.2,0.1c2.6,1.5,5.1,3,7.8,4.5c7,3.8,14.2,7.2,21.7,10.2c0.2,0.1,0.3,0.1,0.5,0.2c1,0.4,2.1,0.8,3.1,1.2
                                                        c0.5,0.2,1,0.4,1.4,0.5c1,0.4,2,0.7,3.1,1.1c0.5,0.2,1,0.4,1.5,0.5c0.9,0.3,1.9,0.6,2.8,0.9c0.6,0.2,1.2,0.4,1.8,0.6
                                                        c3,0.9,6,1.8,9.1,2.6c0.1,0,0.2,0.1,0.3,0.1c1.2,0.3,2.3,0.6,3.5,0.9c0.4,0.1,0.8,0.2,1.3,0.3c2.8,0.6,5.6,1.2,8.4,1.7
                                                        c0.4,0.1,0.8,0.2,1.3,0.2c1.3,0.2,2.7,0.5,4,0.7c0.3,0,0.6,0.1,0.9,0.1c1.3,0.2,2.6,0.4,3.9,0.5c0.3,0,0.7,0.1,1,0.1
                                                        c1.4,0.2,2.7,0.3,4.1,0.5c0.3,0,0.6,0.1,0.9,0.1c1.2,0.1,2.5,0.2,3.7,0.3c0.4,0,0.9,0.1,1.3,0.1c1.2,0.1,2.4,0.2,3.6,0.2
                                                        c0.5,0,1,0.1,1.5,0.1c1.3,0.1,2.7,0.1,4,0.2c0.4,0,0.7,0,1.1,0c1.3,0,2.6,0,3.9,0c0.4,0,0.8,0,1.2,0h0c0,0,0,0,0,0h0
                                                        c0.8,0,1.6,0,2.4,0c0.9,0,1.8,0,2.7,0c0.8,0,1.7-0.1,2.5-0.1c0.9,0,1.7-0.1,2.6-0.1c1,0,1.9-0.1,2.9-0.2c0.7,0,1.4-0.1,2.2-0.1
                                                        c1.5-0.1,3-0.2,4.4-0.4c0.2,0,0.4,0,0.6-0.1c3-0.3,6-0.7,9-1.1c0.3,0,0.7-0.1,1-0.1c2.3-0.3,4.5-0.7,6.7-1.2
                                                        c2.1-0.4,4.2-0.8,6.2-1.3c1.7-0.4,3.3-0.8,5-1.2c2.9-0.7,5.8-1.5,8.7-2.4c1.8-0.5,3.5-1.1,5.3-1.7c1.6-0.5,3.3-1.1,4.9-1.7
                                                        c0.4-0.1,0.8-0.3,1.2-0.4c2.6-1,5.2-2,7.8-3.1c0.4-0.2,0.8-0.3,1.2-0.5c0.9-0.4,1.9-0.8,2.8-1.2c0.5-0.2,1.1-0.5,1.6-0.7
                                                        c4.2-1.9,8.3-3.9,12.3-6.1c0.2-0.1,0.4-0.2,0.6-0.3c1-0.6,2-1.1,3-1.7c0.4-0.2,0.8-0.4,1.1-0.6c1.3-0.7,2.5-1.5,3.8-2.3
                                                        c0.1-0.1,0.2-0.1,0.3-0.2c2.5-1.5,4.9-3.1,7.3-4.7c0.2-0.2,0.5-0.3,0.7-0.5c1-0.6,1.9-1.3,2.8-2c0.4-0.3,0.7-0.5,1.1-0.8
                                                        c2.4-1.7,4.8-3.5,7.1-5.3c0.2-0.1,0.3-0.3,0.5-0.4c0.9-0.7,1.9-1.5,2.8-2.2c0.3-0.2,0.6-0.5,0.9-0.7c1.1-0.9,2.3-1.9,3.4-2.9
                                                        c0.1-0.1,0.2-0.1,0.2-0.2c1-0.9,2.1-1.8,3.1-2.7c0.2-0.1,0.3-0.3,0.5-0.4c1-0.9,2-1.9,3.1-2.8c0.1-0.1,0.3-0.3,0.4-0.4
                                                        c1-0.9,1.9-1.8,2.8-2.8c0.2-0.2,0.4-0.4,0.6-0.5l0,0c0,0,0,0,0,0l0,0c0.5-0.5,1-1.1,1.6-1.6c0.6-0.6,1.2-1.2,1.8-1.8
                                                        c0.7-0.7,1.3-1.4,2-2.1c0.4-0.5,0.8-0.9,1.3-1.4c0.6-0.6,1.1-1.2,1.7-1.9c0.5-0.6,1-1.1,1.5-1.7c0.9-1.1,1.8-2.1,2.7-3.2
                                                        c0.1-0.1,0.3-0.3,0.4-0.4c0.5-0.6,1-1.3,1.5-1.9c0.5-0.6,1-1.2,1.5-1.8c1.6-2.1,3.2-4.2,4.8-6.3c0.3-0.4,0.6-0.8,0.9-1.3
                                                        c0.4-0.5,0.7-1,1.1-1.5c0.6-0.8,1.1-1.6,1.6-2.4c0.2-0.2,0.3-0.5,0.5-0.7c1.2-1.7,2.3-3.5,3.4-5.2c1.8-2.9,3.6-5.9,5.3-8.9
                                                        c1.1-1.9,2.1-3.8,3.1-5.7c0.7-1.4,1.4-2.9,2.1-4.3c1.3-2.8,2.6-5.6,3.8-8.4c0.1-0.1,0.1-0.2,0.2-0.4
                                                        C384.1,274.6,385.2,271.8,386.2,269z M353.8,203.9c0,0.4,0,0.9,0,1.3c0,0.9-0.1,1.7-0.1,2.6c0,0.5-0.1,1.1-0.1,1.6
                                                        c0,0.7-0.1,1.5-0.1,2.2c0,0.6-0.1,1.1-0.1,1.7c-0.1,0.7-0.1,1.4-0.2,2.1c-0.1,0.6-0.1,1.2-0.2,1.8c-0.1,0.7-0.1,1.3-0.2,2
                                                        c-0.1,0.6-0.2,1.2-0.2,1.8c-0.1,0.6-0.2,1.3-0.3,1.9c-0.1,0.6-0.2,1.3-0.3,1.9c-0.1,0.6-0.2,1.2-0.3,1.8c-0.1,0.6-0.2,1.3-0.4,1.9
                                                        c-0.1,0.6-0.2,1.2-0.3,1.8c-0.1,0.6-0.3,1.3-0.4,1.9c-0.1,0.6-0.2,1.1-0.4,1.7c-0.1,0.7-0.3,1.3-0.5,2c-0.1,0.5-0.3,1.1-0.4,1.6
                                                        c-0.2,0.7-0.3,1.3-0.5,2c-0.1,0.5-0.3,1-0.4,1.6c-0.2,0.7-0.4,1.4-0.6,2c-0.1,0.5-0.3,1-0.4,1.5c-0.2,0.7-0.4,1.4-0.6,2.1
                                                        c-0.1,0.5-0.3,0.9-0.5,1.4c-0.2,0.7-0.5,1.4-0.7,2.1c-0.2,0.4-0.3,0.9-0.5,1.3c-0.3,0.7-0.5,1.5-0.8,2.2c-0.1,0.4-0.3,0.8-0.5,1.2
                                                        c-0.3,0.8-0.6,1.5-0.9,2.2c-0.1,0.4-0.3,0.7-0.4,1.1c-0.3,0.8-0.6,1.5-1,2.3c-0.1,0.3-0.3,0.6-0.4,0.9c-0.4,0.8-0.7,1.6-1.1,2.4
                                                        c-0.1,0.3-0.2,0.5-0.4,0.8c-0.4,0.9-0.8,1.7-1.2,2.6c-0.1,0.2-0.2,0.4-0.3,0.5c-0.4,0.9-0.9,1.8-1.4,2.7c0,0.1-0.1,0.2-0.1,0.2
                                                        c-6.6,12.6-14.8,24.2-24.5,34.5c0,0,0,0,0,0c-10.5,11.2-22.7,20.8-36.1,28.4c-0.1,0-0.2,0.1-0.2,0.1c-1,0.6-2,1.1-3.1,1.7
                                                        c-0.2,0.1-0.3,0.2-0.5,0.3c-1,0.5-1.9,1-2.9,1.5c-0.2,0.1-0.5,0.2-0.7,0.3c-0.9,0.4-1.8,0.9-2.7,1.3c-0.3,0.1-0.6,0.3-0.9,0.4
                                                        c-0.9,0.4-1.7,0.8-2.6,1.2c-0.3,0.1-0.7,0.3-1,0.4c-0.8,0.4-1.7,0.7-2.5,1.1c-0.4,0.2-0.7,0.3-1.1,0.5c-0.8,0.3-1.6,0.7-2.4,1
                                                        c-0.4,0.2-0.8,0.3-1.2,0.5c-0.8,0.3-1.6,0.6-2.4,0.9c-0.4,0.2-0.9,0.3-1.3,0.5c-0.8,0.3-1.6,0.5-2.3,0.8c-0.5,0.1-0.9,0.3-1.4,0.4
                                                        c-0.8,0.2-1.5,0.5-2.3,0.7c-0.5,0.1-0.9,0.3-1.4,0.4c-0.8,0.2-1.5,0.4-2.3,0.6c-0.5,0.1-1,0.3-1.5,0.4c-0.8,0.2-1.5,0.4-2.3,0.6
                                                        c-0.5,0.1-1,0.3-1.5,0.4c-0.7,0.2-1.5,0.3-2.2,0.5c-0.5,0.1-1.1,0.2-1.6,0.3c-0.7,0.2-1.5,0.3-2.2,0.4c-0.5,0.1-1.1,0.2-1.6,0.3
                                                        c-0.7,0.1-1.5,0.3-2.2,0.4c-0.5,0.1-1.1,0.2-1.6,0.3c-0.7,0.1-1.5,0.2-2.3,0.3c-0.6,0.1-1.1,0.2-1.7,0.2c-0.8,0.1-1.5,0.2-2.3,0.3
                                                        c-0.6,0.1-1.1,0.1-1.7,0.2c-0.8,0.1-1.6,0.1-2.3,0.2c-0.5,0-1.1,0.1-1.6,0.1c-0.8,0.1-1.6,0.1-2.4,0.2c-0.5,0-1,0.1-1.6,0.1
                                                        c-0.9,0-1.8,0.1-2.7,0.1c-0.5,0-0.9,0-1.4,0.1c-1.3,0-2.6,0.1-3.9,0.1c0,0-0.1,0-0.1,0s-0.1,0-0.1,0c-1.3,0-2.6,0-3.9-0.1
                                                        c-0.5,0-0.9,0-1.4-0.1c-0.9,0-1.8-0.1-2.7-0.1c-0.5,0-1.1-0.1-1.6-0.1c-0.8-0.1-1.6-0.1-2.4-0.2c-0.6,0-1.1-0.1-1.6-0.1
                                                        c-0.8-0.1-1.6-0.1-2.3-0.2c-0.6-0.1-1.1-0.1-1.7-0.2c-0.8-0.1-1.5-0.2-2.3-0.3c-0.6-0.1-1.1-0.2-1.7-0.2c-0.8-0.1-1.5-0.2-2.3-0.3
                                                        c-0.6-0.1-1.1-0.2-1.6-0.3c-0.8-0.1-1.5-0.3-2.2-0.4c-0.5-0.1-1.1-0.2-1.6-0.3c-0.7-0.1-1.5-0.3-2.2-0.4c-0.5-0.1-1.1-0.2-1.6-0.3
                                                        c-0.8-0.2-1.5-0.3-2.2-0.5c-0.5-0.1-1-0.2-1.5-0.4c-0.8-0.2-1.5-0.4-2.3-0.6c-0.5-0.1-1-0.3-1.5-0.4c-0.8-0.2-1.5-0.4-2.3-0.6
                                                        c-0.5-0.1-0.9-0.3-1.4-0.4c-0.8-0.2-1.5-0.5-2.3-0.7c-0.5-0.1-0.9-0.3-1.4-0.4c-0.8-0.3-1.6-0.5-2.3-0.8c-0.4-0.1-0.9-0.3-1.3-0.5
                                                        c-0.8-0.3-1.6-0.6-2.4-0.9c-0.4-0.2-0.8-0.3-1.2-0.5c-0.8-0.3-1.6-0.6-2.4-1c-0.4-0.1-0.7-0.3-1.1-0.5c-0.8-0.3-1.7-0.7-2.5-1.1
                                                        c-0.3-0.1-0.7-0.3-1-0.4c-0.9-0.4-1.7-0.8-2.6-1.2c-0.3-0.1-0.6-0.3-0.9-0.4c-0.9-0.4-1.8-0.9-2.7-1.3c-0.2-0.1-0.5-0.2-0.7-0.3
                                                        c-1-0.5-1.9-1-2.9-1.5c-0.2-0.1-0.3-0.2-0.5-0.3c-1-0.6-2.1-1.1-3.1-1.7c-0.1,0-0.2-0.1-0.2-0.1c-13.4-7.6-25.6-17.2-36.1-28.4
                                                        c0,0,0,0,0,0c-9.6-10.3-17.9-21.9-24.5-34.5c0-0.1-0.1-0.2-0.1-0.2c-0.5-0.9-0.9-1.8-1.4-2.7c-0.1-0.2-0.2-0.4-0.3-0.5
                                                        c-0.4-0.8-0.8-1.7-1.2-2.5c-0.1-0.3-0.2-0.5-0.4-0.8c-0.4-0.8-0.7-1.6-1.1-2.4c-0.1-0.3-0.3-0.6-0.4-0.9c-0.3-0.8-0.7-1.5-1-2.3
                                                        c-0.1-0.4-0.3-0.7-0.4-1.1c-0.3-0.7-0.6-1.5-0.9-2.3c-0.2-0.4-0.3-0.8-0.5-1.2c-0.3-0.7-0.5-1.5-0.8-2.2c-0.2-0.4-0.3-0.9-0.5-1.3
                                                        c-0.2-0.7-0.5-1.4-0.7-2.1c-0.2-0.5-0.3-0.9-0.5-1.4c-0.2-0.7-0.4-1.4-0.7-2.1c-0.1-0.5-0.3-1-0.4-1.5c-0.2-0.7-0.4-1.4-0.6-2.1
                                                        c-0.1-0.5-0.3-1-0.4-1.6c-0.2-0.7-0.4-1.3-0.5-2c-0.1-0.5-0.3-1.1-0.4-1.6c-0.2-0.7-0.3-1.3-0.5-2c-0.1-0.6-0.2-1.1-0.4-1.7
                                                        c-0.1-0.6-0.3-1.3-0.4-1.9c-0.1-0.6-0.2-1.2-0.3-1.8c-0.1-0.6-0.2-1.3-0.4-1.9c-0.1-0.6-0.2-1.2-0.3-1.8c-0.1-0.6-0.2-1.2-0.3-1.9
                                                        c-0.1-0.6-0.2-1.3-0.3-1.9c-0.1-0.6-0.2-1.2-0.2-1.8c-0.1-0.7-0.2-1.3-0.2-2c-0.1-0.6-0.1-1.2-0.2-1.8c-0.1-0.7-0.1-1.4-0.2-2.1
                                                        c0-0.6-0.1-1.1-0.1-1.7c-0.1-0.7-0.1-1.5-0.1-2.2c0-0.5-0.1-1.1-0.1-1.6c0-0.8-0.1-1.7-0.1-2.6c0-0.4,0-0.9,0-1.3
                                                        c0-1.3,0-2.6,0-3.9s0-2.6,0-3.9c0-0.4,0-0.9,0-1.3c0-0.9,0.1-1.7,0.1-2.5c0-0.5,0.1-1.1,0.1-1.6c0-0.7,0.1-1.5,0.1-2.2
                                                        c0-0.6,0.1-1.1,0.1-1.7c0.1-0.7,0.1-1.4,0.2-2.1c0.1-0.6,0.1-1.2,0.2-1.8c0.1-0.7,0.1-1.3,0.2-2c0.1-0.6,0.2-1.2,0.2-1.8
                                                        c0.1-0.6,0.2-1.3,0.3-1.9c0.1-0.6,0.2-1.3,0.3-1.9c0.1-0.6,0.2-1.2,0.3-1.8c0.1-0.6,0.2-1.3,0.4-1.9c0.1-0.6,0.2-1.2,0.3-1.8
                                                        c0.1-0.7,0.3-1.3,0.4-1.9c0.1-0.6,0.2-1.1,0.4-1.7c0.1-0.7,0.3-1.3,0.5-2c0.1-0.5,0.3-1.1,0.4-1.6c0.2-0.7,0.3-1.3,0.5-2
                                                        c0.1-0.5,0.3-1,0.4-1.6c0.2-0.7,0.4-1.4,0.6-2c0.1-0.5,0.3-1,0.4-1.5c0.2-0.7,0.4-1.4,0.6-2.1c0.1-0.5,0.3-0.9,0.5-1.4
                                                        c0.2-0.7,0.5-1.4,0.7-2.1c0.2-0.4,0.3-0.9,0.5-1.3c0.3-0.7,0.5-1.5,0.8-2.2c0.1-0.4,0.3-0.8,0.5-1.2c0.3-0.8,0.6-1.5,0.9-2.3
                                                        c0.1-0.4,0.3-0.7,0.4-1.1c0.3-0.8,0.6-1.6,1-2.3c0.1-0.3,0.3-0.6,0.4-0.9c0.4-0.8,0.7-1.6,1.1-2.4c0.1-0.3,0.2-0.5,0.4-0.8
                                                        c0.4-0.9,0.8-1.7,1.2-2.5c0.1-0.2,0.2-0.4,0.3-0.6c0.4-0.9,0.9-1.8,1.4-2.7c0-0.1,0.1-0.2,0.1-0.2c6.6-12.6,14.8-24.2,24.5-34.5
                                                        l0,0v0l0,0c10.5-11.2,22.7-20.8,36.1-28.4c0.1,0,0.1-0.1,0.2-0.1c1-0.6,2.1-1.2,3.1-1.7c0.2-0.1,0.3-0.2,0.5-0.3
                                                        c1-0.5,1.9-1,2.9-1.5c0.2-0.1,0.5-0.2,0.7-0.3c0.9-0.5,1.8-0.9,2.7-1.3c0.3-0.1,0.6-0.3,0.8-0.4c0.9-0.4,1.7-0.8,2.6-1.2
                                                        c0.3-0.1,0.6-0.3,1-0.4c0.8-0.4,1.7-0.7,2.5-1.1c0.4-0.1,0.7-0.3,1.1-0.4c0.8-0.3,1.6-0.7,2.5-1c0.4-0.2,0.8-0.3,1.2-0.4
                                                        c0.8-0.3,1.6-0.6,2.4-0.9c0.4-0.2,0.8-0.3,1.3-0.4c0.8-0.3,1.6-0.5,2.4-0.8c0.4-0.1,0.9-0.3,1.3-0.4c0.8-0.2,1.5-0.5,2.3-0.7
                                                        c0.5-0.1,0.9-0.3,1.4-0.4c0.8-0.2,1.5-0.4,2.3-0.6c0.5-0.1,1-0.3,1.5-0.4c0.8-0.2,1.5-0.4,2.3-0.6c0.5-0.1,1-0.3,1.5-0.4
                                                        c0.8-0.2,1.5-0.3,2.3-0.5c0.5-0.1,1-0.2,1.6-0.3c0.8-0.2,1.5-0.3,2.3-0.5c0.5-0.1,1.1-0.2,1.6-0.3c0.8-0.1,1.5-0.3,2.3-0.4
                                                        c0.5-0.1,1.1-0.2,1.6-0.3c0.8-0.1,1.5-0.2,2.3-0.3c0.5-0.1,1.1-0.2,1.6-0.2c0.8-0.1,1.5-0.2,2.3-0.3c0.5-0.1,1.1-0.1,1.6-0.2
                                                        c0.8-0.1,1.6-0.1,2.4-0.2c0.5,0,1.1-0.1,1.6-0.1c0.8-0.1,1.6-0.1,2.5-0.2c0.5,0,1-0.1,1.5-0.1c0.9,0,1.8-0.1,2.7-0.1
                                                        c0.4,0,0.9,0,1.3,0c1.3,0,2.7-0.1,4.1-0.1s2.7,0,4.1,0.1c0.4,0,0.9,0,1.3,0c0.9,0,1.8,0.1,2.7,0.1c0.5,0,1,0.1,1.5,0.1
                                                        c0.8,0.1,1.7,0.1,2.5,0.2c0.5,0,1.1,0.1,1.6,0.1c0.8,0.1,1.6,0.1,2.4,0.2c0.5,0.1,1.1,0.1,1.6,0.2c0.8,0.1,1.5,0.2,2.3,0.3
                                                        c0.5,0.1,1.1,0.2,1.6,0.2c0.8,0.1,1.5,0.2,2.3,0.3c0.5,0.1,1.1,0.2,1.6,0.3c0.8,0.1,1.5,0.3,2.3,0.4c0.5,0.1,1.1,0.2,1.6,0.3
                                                        c0.8,0.1,1.5,0.3,2.3,0.5c0.5,0.1,1,0.2,1.6,0.3c0.8,0.2,1.5,0.3,2.3,0.5c0.5,0.1,1,0.2,1.5,0.4c0.8,0.2,1.5,0.4,2.3,0.6
                                                        c0.5,0.1,1,0.3,1.5,0.4c0.8,0.2,1.5,0.4,2.3,0.6c0.5,0.1,0.9,0.3,1.4,0.4c0.8,0.2,1.6,0.5,2.3,0.7c0.4,0.1,0.9,0.3,1.3,0.4
                                                        c0.8,0.3,1.6,0.5,2.4,0.8c0.4,0.1,0.8,0.3,1.3,0.4c0.8,0.3,1.6,0.6,2.4,0.9c0.4,0.1,0.8,0.3,1.2,0.4c0.8,0.3,1.6,0.6,2.5,1
                                                        c0.4,0.1,0.7,0.3,1.1,0.4c0.8,0.4,1.7,0.7,2.5,1.1c0.3,0.1,0.6,0.3,1,0.4c0.9,0.4,1.7,0.8,2.6,1.2c0.3,0.1,0.6,0.3,0.8,0.4
                                                        c0.9,0.4,1.8,0.9,2.7,1.3c0.2,0.1,0.5,0.2,0.7,0.3c1,0.5,1.9,1,2.9,1.5c0.2,0.1,0.3,0.2,0.5,0.3c1,0.6,2.1,1.1,3.1,1.7
                                                        c0.1,0,0.1,0.1,0.2,0.1c13.4,7.6,25.6,17.3,36.1,28.4c9.7,10.3,17.9,21.9,24.5,34.5c0,0.1,0.1,0.2,0.1,0.2
                                                        c0.5,0.9,0.9,1.8,1.4,2.7c0.1,0.2,0.2,0.4,0.3,0.5c0.4,0.8,0.8,1.7,1.2,2.6c0.1,0.3,0.2,0.5,0.4,0.8c0.4,0.8,0.7,1.6,1.1,2.4
                                                        c0.1,0.3,0.3,0.6,0.4,0.9c0.3,0.8,0.7,1.5,1,2.3c0.1,0.4,0.3,0.7,0.4,1.1c0.3,0.7,0.6,1.5,0.9,2.3c0.2,0.4,0.3,0.8,0.5,1.2
                                                        c0.3,0.7,0.5,1.5,0.8,2.2c0.2,0.4,0.3,0.9,0.5,1.3c0.2,0.7,0.5,1.4,0.7,2.1c0.2,0.5,0.3,0.9,0.5,1.4c0.2,0.7,0.4,1.4,0.6,2.1
                                                        c0.1,0.5,0.3,1,0.4,1.5c0.2,0.7,0.4,1.4,0.6,2c0.1,0.5,0.3,1,0.4,1.6c0.2,0.7,0.4,1.3,0.5,2c0.1,0.5,0.3,1.1,0.4,1.6
                                                        c0.2,0.7,0.3,1.3,0.5,2c0.1,0.6,0.2,1.1,0.4,1.7c0.1,0.6,0.3,1.3,0.4,1.9c0.1,0.6,0.2,1.2,0.3,1.8c0.1,0.6,0.2,1.3,0.4,1.9
                                                        c0.1,0.6,0.2,1.2,0.3,1.8c0.1,0.6,0.2,1.3,0.3,1.9c0.1,0.6,0.2,1.3,0.3,1.9c0.1,0.6,0.2,1.2,0.2,1.8c0.1,0.7,0.2,1.3,0.2,2
                                                        c0.1,0.6,0.1,1.2,0.2,1.8c0.1,0.7,0.1,1.4,0.2,2.1c0,0.6,0.1,1.1,0.1,1.7c0.1,0.7,0.1,1.5,0.1,2.2c0,0.5,0.1,1.1,0.1,1.6
                                                        c0,0.8,0.1,1.7,0.1,2.5c0,0.4,0,0.9,0,1.3c0,1.3,0,2.6,0,3.9S353.8,202.6,353.8,203.9z"/>
                                                </g>
                                            </g>
    <g id="letters">
                                                <g id="letters_SB">
                                                    <radialGradient id="SVGID_2_" cx="124.0256" cy="40.2625" r="10.2672"
                                                                    gradientUnits="userSpaceOnUse">
                                                        <stop offset="0" style="stop-color:#212121"/>
                                                        <stop offset="0.4649" style="stop-color:#242424"/>
                                                        <stop offset="1" style="stop-color:#8C8C8C"/>
                                                    </radialGradient>
                                                    <path class="st8" d="M127.4,33.7l-4.7,2.3l-0.7-1.5c-0.3-0.7-0.6-1.1-0.8-1.2c-0.2-0.1-0.5-0.1-0.7,0c-0.3,0.2-0.5,0.4-0.5,0.7
                                                        c0,0.3,0.1,0.8,0.3,1.3c0.3,0.7,0.7,1.1,1,1.4c0.3,0.3,1,0.4,2,0.5c2.9,0.2,4.9,0.7,5.9,1.2c1,0.6,2,1.8,3,3.8
                                                        c0.7,1.4,1.1,2.5,1.1,3.4c0,0.8-0.3,1.7-1,2.6s-1.7,1.7-2.9,2.3c-1.3,0.7-2.6,1-3.8,0.9c-1.2,0-2.2-0.4-2.9-1.1
                                                        c-0.7-0.7-1.4-1.7-2.2-3.2l-0.7-1.3l4.7-2.3l1.2,2.4c0.4,0.7,0.7,1.2,0.9,1.3c0.2,0.1,0.5,0.1,0.9,0c0.3-0.2,0.5-0.4,0.5-0.8
                                                        c0-0.4-0.1-0.8-0.4-1.3c-0.6-1.2-1.1-1.9-1.6-2.1c-0.5-0.2-1.6-0.4-3.3-0.6c-1.7-0.2-2.8-0.4-3.4-0.6c-0.6-0.2-1.2-0.5-1.8-1.1
                                                        c-0.6-0.5-1.2-1.3-1.7-2.4c-0.8-1.5-1.1-2.7-1.1-3.6c0-0.9,0.4-1.7,1-2.6c0.6-0.8,1.6-1.5,2.8-2.1c1.3-0.7,2.5-1,3.7-1
                                                        s2,0.2,2.6,0.7c0.6,0.5,1.3,1.6,2.1,3.1L127.4,33.7z"/>
                                                    <radialGradient id="SVGID_3_" cx="140.0106" cy="33.846" r="10.737"
                                                                    gradientUnits="userSpaceOnUse">
                                                        <stop offset="0" style="stop-color:#212121"/>
                                                        <stop offset="0.4649" style="stop-color:#242424"/>
                                                        <stop offset="1" style="stop-color:#8C8C8C"/>
                                                    </radialGradient>
                                                    <path class="st9" d="M130.6,25l5.2-2c1.7-0.6,3-1,3.9-1c1-0.1,1.8,0.2,2.7,0.8s1.6,1.8,2.3,3.6c0.5,1.2,0.6,2.1,0.4,2.7
                                                        s-0.8,1.3-1.8,1.9c1.3-0.2,2.3,0,3,0.5s1.3,1.4,1.8,2.8l0.7,1.9c0.5,1.4,0.8,2.5,0.7,3.3s-0.4,1.4-1,1.9s-1.9,1.2-4.1,1.9
                                                        l-6.1,2.3L130.6,25z M137.1,26.5l1.7,4.6c0.2-0.1,0.4-0.2,0.5-0.2c0.5-0.2,0.8-0.4,0.8-0.8c0-0.3-0.2-1.1-0.6-2.3
                                                        c-0.2-0.6-0.5-1.1-0.7-1.3s-0.4-0.3-0.6-0.3C138.1,26.2,137.7,26.3,137.1,26.5z M140.1,34.4l2.2,5.8c0.7-0.3,1.2-0.6,1.3-0.9
                                                        c0.1-0.3,0-0.9-0.3-1.7l-0.7-1.9c-0.3-0.9-0.6-1.4-0.9-1.5C141.4,34,140.9,34.1,140.1,34.4z"/>
                                                </g>
        <g id="letters_UTG">
                                                    <radialGradient id="SVGID_4_" cx="252.0777" cy="29.7646" r="10.5425"
                                                                    gradientUnits="userSpaceOnUse">
                                                        <stop offset="0" style="stop-color:#212121"/>
                                                        <stop offset="0.4649" style="stop-color:#242424"/>
                                                        <stop offset="1" style="stop-color:#8C8C8C"/>
                                                    </radialGradient>
            <path class="st10" d="M260.9,21.7l-4.5,14.1c-0.5,1.6-0.9,2.7-1.2,3.3c-0.3,0.6-0.8,1.2-1.5,1.7c-0.7,0.5-1.5,0.8-2.5,0.9
                                                        c-0.9,0.1-1.9,0-3.1-0.4c-1.2-0.4-2.2-0.9-3.1-1.7s-1.3-1.5-1.6-2.3c-0.3-0.8-0.3-1.6-0.2-2.4c0.2-0.8,0.6-2.3,1.4-4.7l4-12.5
                                                        l5.4,1.7l-5,15.9c-0.3,0.9-0.4,1.5-0.4,1.8s0.2,0.5,0.5,0.6c0.3,0.1,0.6,0,0.8-0.2s0.4-0.9,0.8-2l5-15.6L260.9,21.7z"/>
            <radialGradient id="SVGID_5_" cx="268.9708" cy="35.6197" r="10.3802"
                            gradientUnits="userSpaceOnUse">
                                                        <stop offset="0" style="stop-color:#212121"/>
                <stop offset="0.4649" style="stop-color:#242424"/>
                <stop offset="1" style="stop-color:#8C8C8C"/>
                                                    </radialGradient>
            <path class="st11"
                  d="M277.5,28.5l-1.8,4.1l-3.1-1.3l-7.1,16.3l-5.2-2.2l7.1-16.3l-3-1.3l1.8-4.1L277.5,28.5z"/>
            <radialGradient id="SVGID_6_" cx="282.7463" cy="44.7106" r="10.7368"
                            gradientUnits="userSpaceOnUse">
                                                        <stop offset="0" style="stop-color:#212121"/>
                <stop offset="0.4649" style="stop-color:#242424"/>
                <stop offset="1" style="stop-color:#8C8C8C"/>
                                                    </radialGradient>
            <path class="st12" d="M289.9,44.5l-4.9-2.7l1-1.8c0.6-1.1,1-1.8,1-2.2c0.1-0.3-0.1-0.6-0.4-0.8c-0.3-0.2-0.6-0.2-0.8,0
                                                        c-0.2,0.2-0.6,0.8-1.2,1.8l-5.2,9.3c-0.5,0.9-0.8,1.5-0.8,1.8c0,0.3,0.1,0.6,0.4,0.8c0.4,0.2,0.7,0.2,1-0.1s0.7-0.8,1.2-1.7
                                                        l1.3-2.3l-1-0.6l1.6-2.9l5.7,3.2l-5.8,10.4L280,55l0.3-1.6c-0.7,0.4-1.3,0.6-2,0.6c-0.7,0-1.4-0.2-2.1-0.6c-0.8-0.5-1.5-1.1-2-1.9
                                                        c-0.5-0.8-0.8-1.6-0.8-2.4c0-0.8,0.1-1.6,0.4-2.3c0.3-0.7,0.8-1.7,1.5-3.1l3.2-5.8c1-1.9,1.9-3.1,2.5-3.9c0.7-0.7,1.6-1.2,3-1.4
                                                        s2.7,0.1,4.2,0.9c1.4,0.8,2.5,1.8,3.1,2.9c0.6,1.1,0.8,2.2,0.6,3.2c-0.2,1-0.7,2.3-1.6,3.9L289.9,44.5z"/>
                                                </g>
        <g id="letters_UTG1">
                                                    <radialGradient id="SVGID_7_" cx="351.2498" cy="110.8625" r="11.0896"
                                                                    gradientUnits="userSpaceOnUse">
                                                        <stop offset="0" style="stop-color:#212121"/>
                                                        <stop offset="0.4649" style="stop-color:#242424"/>
                                                        <stop offset="1" style="stop-color:#8C8C8C"/>
                                                    </radialGradient>
            <path class="st13" d="M363.2,111.9l-12.9,7.2c-1.5,0.8-2.5,1.3-3.2,1.6c-0.6,0.2-1.4,0.3-2.3,0.2c-0.9-0.1-1.7-0.4-2.4-1
                                                        c-0.7-0.6-1.4-1.4-2-2.4c-0.6-1.1-1-2.2-1.1-3.3c-0.1-1.1,0-2,0.4-2.8c0.4-0.8,0.9-1.4,1.5-1.8c0.6-0.5,2-1.3,4.2-2.5l11.5-6.4
                                                        l2.7,4.9l-14.5,8.1c-0.8,0.5-1.4,0.8-1.5,1c-0.2,0.2-0.2,0.5-0.1,0.7c0.2,0.3,0.4,0.4,0.7,0.4c0.3-0.1,0.9-0.4,1.9-0.9l14.3-8
                                                        L363.2,111.9z"/>
            <radialGradient id="SVGID_8_" cx="358.6783" cy="125.5069" r="10.3948"
                            gradientUnits="userSpaceOnUse">
                                                        <stop offset="0" style="stop-color:#212121"/>
                <stop offset="0.4649" style="stop-color:#242424"/>
                <stop offset="1" style="stop-color:#8C8C8C"/>
                                                    </radialGradient>
            <path class="st14"
                  d="M370.6,128.2l-4.1,1.8l-1.3-3.1l-16.2,7.1l-2.3-5.1l16.2-7.1l-1.3-3l4.1-1.8L370.6,128.2z"/>
            <radialGradient id="SVGID_9_" cx="364.0462" cy="143.668" r="10.312"
                            gradientUnits="userSpaceOnUse">
                                                        <stop offset="0" style="stop-color:#212121"/>
                <stop offset="0.4649" style="stop-color:#242424"/>
                <stop offset="1" style="stop-color:#8C8C8C"/>
                                                    </radialGradient>
            <path class="st15" d="M369,148.3l-1.8-5.3l1.9-0.6c1.2-0.4,1.9-0.7,2.2-0.9c0.3-0.2,0.3-0.5,0.2-0.9c-0.1-0.3-0.3-0.5-0.6-0.5
                                                        c-0.3,0-1,0.1-2.1,0.5l-10.1,3.3c-0.9,0.3-1.5,0.6-1.8,0.8c-0.3,0.2-0.3,0.5-0.2,0.9c0.1,0.4,0.4,0.6,0.8,0.6c0.4,0,1.1-0.1,2-0.4
                                                        l2.5-0.8l-0.4-1.1l3.2-1.1l2.1,6.2l-11.3,3.7l-1.1-3.4l1.3-1c-0.8-0.1-1.4-0.4-1.9-0.9c-0.5-0.4-0.9-1-1.1-1.8
                                                        c-0.3-0.9-0.3-1.8-0.2-2.7c0.2-0.9,0.5-1.7,1.1-2.3c0.5-0.6,1.1-1.1,1.8-1.4c0.7-0.3,1.8-0.7,3.2-1.2l6.3-2.1c2-0.7,3.5-1,4.5-1.1
                                                        s2,0.2,3.1,1c1.1,0.8,1.9,1.9,2.4,3.5c0.5,1.6,0.6,3,0.3,4.2c-0.3,1.2-0.9,2.2-1.7,2.8c-0.8,0.6-2.1,1.2-3.8,1.8L369,148.3z"/>
            <radialGradient id="SVGID_10_" cx="368.7921" cy="158.3678" r="9.3077"
                            gradientUnits="userSpaceOnUse">
                                                        <stop offset="0" style="stop-color:#212121"/>
                <stop offset="0.4649" style="stop-color:#242424"/>
                <stop offset="1" style="stop-color:#8C8C8C"/>
                                                    </radialGradient>
            <path class="st16" d="M380.2,159.9l-21.6,5l-1.2-5.2L369,157c1.7-0.4,2.7-0.7,3-0.8c0.3-0.2,0.5-0.4,0.6-0.8s0-1.2-0.3-2.4
                                                        l-0.1-0.5l2.5-0.6c1.2,2.4,2.8,4.1,4.8,5L380.2,159.9z"/>
                                                </g>
        <g id="letters_MP">
                                                    <radialGradient id="SVGID_11_" cx="363.5582" cy="258.7284" r="12.5617"
                                                                    gradientUnits="userSpaceOnUse">
                                                        <stop offset="0" style="stop-color:#212121"/>
                                                        <stop offset="0.4649" style="stop-color:#242424"/>
                                                        <stop offset="1" style="stop-color:#8C8C8C"/>
                                                    </radialGradient>
            <path class="st17" d="M371.3,270.5l-21-7.2l1.6-4.6l14.2,4.8l-13.5-6.7l1.1-3.3l14.5,2.8l-13.8-4.7l1.6-4.6l21,7.2l-2.3,6.9
                                                        c-1.3-0.2-2.9-0.5-4.7-0.9l-5.6-1.1l9.4,4.6L371.3,270.5z"/>
            <radialGradient id="SVGID_12_" cx="357.2853" cy="276.8671" r="10.3953"
                            gradientUnits="userSpaceOnUse">
                                                        <stop offset="0" style="stop-color:#212121"/>
                <stop offset="0.4649" style="stop-color:#242424"/>
                <stop offset="1" style="stop-color:#8C8C8C"/>
                                                    </radialGradient>
            <path class="st18" d="M368.5,276.8l-2.4,5.1c-0.7,1.4-1.3,2.4-1.8,3c-0.6,0.6-1.2,1-1.8,1.2c-0.6,0.2-1.2,0.2-1.9,0
                                                        c-0.7-0.1-1.6-0.5-2.9-1.1l-1.7-0.8c-1.3-0.6-2.2-1.2-2.6-1.7c-0.5-0.5-0.7-1.2-0.7-2.1c0-0.8,0.3-1.8,0.8-2.9l0.6-1.4l-8.1-3.8
                                                        l2.4-5.1L368.5,276.8z M362.7,280.3l-5.1-2.4c-0.1,0.1-0.1,0.3-0.2,0.4c-0.2,0.5-0.3,0.8-0.1,1.1c0.1,0.3,0.6,0.6,1.3,1l1.6,0.8
                                                        c0.7,0.3,1.2,0.4,1.5,0.3C362.1,281.3,362.4,281,362.7,280.3z"/>
                                                </g>
        <g id="letters_MP1">
                                                    <radialGradient id="SVGID_13_" cx="281.3766" cy="356.9032" r="13.4133"
                                                                    gradientUnits="userSpaceOnUse">
                                                        <stop offset="0" style="stop-color:#212121"/>
                                                        <stop offset="0.4649" style="stop-color:#242424"/>
                                                        <stop offset="1" style="stop-color:#8C8C8C"/>
                                                    </radialGradient>
            <path class="st19" d="M279.1,370.8l-10.6-19.5l4.3-2.4l7.2,13.1l-5.5-14.1l3.1-1.7l8.8,11.9l-7-12.8l4.3-2.4l10.6,19.5l-6.4,3.5
                                                        c-0.8-1.1-1.8-2.3-2.8-3.8l-3.4-4.6l3.8,9.7L279.1,370.8z"/>
            <radialGradient id="SVGID_14_" cx="265.1714" cy="364.8958" r="9.918"
                            gradientUnits="userSpaceOnUse">
                                                        <stop offset="0" style="stop-color:#212121"/>
                <stop offset="0.4649" style="stop-color:#242424"/>
                <stop offset="1" style="stop-color:#8C8C8C"/>
                                                    </radialGradient>
            <path class="st20" d="M272.7,373.6l-5.2,2.1c-1.4,0.6-2.6,0.9-3.4,1c-0.9,0.1-1.6,0-2.1-0.3c-0.6-0.3-1-0.7-1.4-1.3
                                                        c-0.4-0.6-0.8-1.5-1.4-2.8l-0.7-1.8c-0.5-1.3-0.8-2.3-0.8-3c0-0.7,0.3-1.4,0.9-2c0.6-0.6,1.4-1.1,2.6-1.6l1.4-0.6l-3.3-8.3
                                                        l5.2-2.1L272.7,373.6z M266.1,372.2l-2.1-5.2c-0.2,0.1-0.3,0.1-0.4,0.1c-0.5,0.2-0.8,0.4-0.9,0.8c-0.1,0.3,0,0.9,0.3,1.6l0.7,1.7
                                                        c0.3,0.7,0.6,1.1,0.9,1.2C264.9,372.6,265.4,372.5,266.1,372.2z"/>
            <radialGradient id="SVGID_15_" cx="248.7086" cy="370.9471" r="9.4737"
                            gradientUnits="userSpaceOnUse">
                                                        <stop offset="0" style="stop-color:#212121"/>
                <stop offset="0.4649" style="stop-color:#242424"/>
                <stop offset="1" style="stop-color:#8C8C8C"/>
                                                    </radialGradient>
            <path class="st21" d="M248,382.3l-6.4-21.2l5.2-1.5l3.4,11.4c0.5,1.6,0.8,2.6,1,2.9s0.5,0.5,0.9,0.6c0.4,0.1,1.2-0.1,2.4-0.4
                                                        l0.5-0.2l0.7,2.5c-2.3,1.3-3.9,3-4.7,5.1L248,382.3z"/>
                                                </g>
        <g id="letters_BTN">
                                                    <radialGradient id="SVGID_16_" cx="33.3409" cy="150.4305" r="10.4047"
                                                                    gradientUnits="userSpaceOnUse">
                                                        <stop offset="0" style="stop-color:#212121"/>
                                                        <stop offset="0.4649" style="stop-color:#242424"/>
                                                        <stop offset="1" style="stop-color:#8C8C8C"/>
                                                    </radialGradient>
            <path class="st22" d="M21.4,152.8l1.5-5.4c0.5-1.7,1-3,1.5-3.7c0.5-0.8,1.3-1.3,2.3-1.6s2.4-0.2,4.2,0.3c1.2,0.4,2.1,0.8,2.4,1.3
                                                        c0.4,0.5,0.5,1.4,0.5,2.6c0.6-1.2,1.4-1.9,2.2-2.1c0.8-0.3,1.9-0.2,3.3,0.2l2,0.6c1.4,0.4,2.5,0.9,3.1,1.4c0.6,0.5,0.9,1.2,1,1.9
                                                        c0.1,0.8-0.2,2.2-0.9,4.4l-1.8,6.2L21.4,152.8z M26.6,148.5l4.7,1.4c0.1-0.2,0.1-0.4,0.1-0.5c0.2-0.5,0.1-0.9-0.1-1.1
                                                        c-0.2-0.2-1-0.5-2.2-0.9c-0.7-0.2-1.2-0.3-1.5-0.2c-0.3,0-0.5,0.1-0.6,0.3C26.9,147.6,26.7,147.9,26.6,148.5z M34.6,150.8l6,1.7
                                                        c0.2-0.8,0.2-1.3,0-1.6s-0.7-0.5-1.5-0.8l-2-0.6c-0.9-0.3-1.5-0.3-1.7-0.2C35.1,149.5,34.9,150,34.6,150.8z"/>
            <radialGradient id="SVGID_17_" cx="38.6879" cy="131.9476" r="10.2638"
                            gradientUnits="userSpaceOnUse">
                                                        <stop offset="0" style="stop-color:#212121"/>
                <stop offset="0.4649" style="stop-color:#242424"/>
                <stop offset="1" style="stop-color:#8C8C8C"/>
                                                    </radialGradient>
            <path class="st23"
                  d="M31.2,123.7l4.1,1.6l-1.2,3.1l16.5,6.5l-2.1,5.2l-16.5-6.5l-1.2,3.1l-4.1-1.6L31.2,123.7z"/>
            <radialGradient id="SVGID_18_" cx="46.2706" cy="117.9901" r="11.7187"
                            gradientUnits="userSpaceOnUse">
                                                        <stop offset="0" style="stop-color:#212121"/>
                <stop offset="0.4649" style="stop-color:#242424"/>
                <stop offset="1" style="stop-color:#8C8C8C"/>
                                                    </radialGradient>
            <path class="st24"
                  d="M39.2,107.4l19.8,10l-2.2,4.4l-10.3-2l9,4.6l-2.1,4.2l-19.8-10l2.1-4.2l10.3,1.7l-8.9-4.5L39.2,107.4z"/>
                                                </g>
        <g id="letters_CO">
                                                    <radialGradient id="SVGID_19_" cx="42.9814" cy="275.1482" r="10.2102"
                                                                    gradientUnits="userSpaceOnUse">
                                                        <stop offset="0" style="stop-color:#212121"/>
                                                        <stop offset="0.4649" style="stop-color:#242424"/>
                                                        <stop offset="1" style="stop-color:#8C8C8C"/>
                                                    </radialGradient>
            <path class="st25" d="M38.9,269.7l2.3,5.1l-3.5,1.6c-1,0.5-1.6,0.8-1.8,1s-0.2,0.5-0.1,0.9c0.2,0.4,0.5,0.6,0.8,0.6
                                                        c0.4,0,1.1-0.3,2.1-0.7l9.4-4.3c1-0.4,1.6-0.8,1.8-1c0.2-0.2,0.3-0.6,0.1-1c-0.2-0.4-0.4-0.6-0.8-0.5s-1.1,0.3-2.2,0.8l-2.5,1.2
                                                        l-2.3-5.1l0.8-0.4c2.1-1,3.6-1.5,4.6-1.6c1-0.1,2.1,0.2,3.2,0.9c1.1,0.7,2,1.7,2.6,3.2c0.7,1.5,1,2.9,0.9,4.1s-0.6,2.2-1.4,3
                                                        c-0.8,0.8-2.3,1.6-4.2,2.5l-5.9,2.7c-1.5,0.7-2.6,1.1-3.3,1.3c-0.8,0.2-1.6,0.3-2.5,0.1c-0.9-0.2-1.7-0.6-2.5-1.3
                                                        c-0.8-0.7-1.4-1.6-1.9-2.7c-0.7-1.5-1-2.9-0.8-4.1c0.2-1.3,0.6-2.2,1.4-2.9c0.8-0.7,2.1-1.5,4-2.4L38.9,269.7z"/>
            <radialGradient id="SVGID_20_" cx="36.2173" cy="258.0666" r="9.9611"
                            gradientUnits="userSpaceOnUse">
                                                        <stop offset="0" style="stop-color:#212121"/>
                <stop offset="0.4649" style="stop-color:#242424"/>
                <stop offset="1" style="stop-color:#8C8C8C"/>
                                                    </radialGradient>
            <path class="st26" d="M35.9,251.3c2.1-0.7,3.6-1.2,4.5-1.4c0.9-0.2,1.8-0.2,2.7,0.1s1.7,0.8,2.4,1.5c0.7,0.7,1.2,1.7,1.6,2.8
                                                        c0.4,1.1,0.5,2.1,0.4,3.1c-0.1,1-0.4,1.9-0.9,2.7c-0.6,0.8-1.3,1.4-2.1,1.8c-0.8,0.4-2.3,1-4.5,1.7l-3.6,1.2
                                                        c-2.1,0.7-3.6,1.2-4.5,1.4c-0.9,0.2-1.8,0.2-2.7-0.1c-0.9-0.3-1.7-0.8-2.4-1.5c-0.7-0.7-1.2-1.7-1.6-2.8c-0.4-1.1-0.5-2.1-0.4-3.1
                                                        c0.1-1,0.4-1.9,0.9-2.7c0.6-0.8,1.3-1.4,2.1-1.8c0.8-0.4,2.3-1,4.5-1.7L35.9,251.3z M30.8,259c-1,0.3-1.6,0.6-1.8,0.8
                                                        c-0.2,0.2-0.3,0.5-0.2,0.8c0.1,0.3,0.3,0.5,0.5,0.5c0.3,0.1,0.9-0.1,2-0.4l9.8-3.3c1.2-0.4,2-0.7,2.2-0.9c0.3-0.2,0.3-0.5,0.2-0.8
                                                        c-0.1-0.4-0.4-0.5-0.7-0.5c-0.4,0-1.2,0.2-2.4,0.6L30.8,259z"/>
                                                </g>
        <g id="letters_HL">
                                                    <radialGradient id="SVGID_21_" cx="138.4823" cy="366.1561" r="11.437"
                                                                    gradientUnits="userSpaceOnUse">
                                                        <stop offset="0" style="stop-color:#212121"/>
                                                        <stop offset="0.4649" style="stop-color:#242424"/>
                                                        <stop offset="1" style="stop-color:#8C8C8C"/>
                                                    </radialGradient>
            <path class="st27" d="M128.4,374.1l8.1-20.7l5.2,2l-3.4,8.7l1.6,0.6l3.4-8.7l5.2,2l-8.1,20.7l-5.2-2l2.9-7.4l-1.6-0.6l-2.9,7.4
                                                        L128.4,374.1z"/>
            <radialGradient id="SVGID_22_" cx="124.9035" cy="359.4081" r="9.9669"
                            gradientUnits="userSpaceOnUse">
                                                        <stop offset="0" style="stop-color:#212121"/>
                <stop offset="0.4649" style="stop-color:#242424"/>
                <stop offset="1" style="stop-color:#8C8C8C"/>
                                                    </radialGradient>
            <path class="st28"
                  d="M117.4,368.8l8-15.9l-3.1-1.5l2-4l8.1,4.1l-10,19.8L117.4,368.8z"/>
                                                </g>
                                            </g>
    <g id="border">
                                                <radialGradient id="border_x5F_content_1_" cx="200" cy="200" r="199.9999"
                                                                gradientUnits="userSpaceOnUse">
                                                    <stop offset="0" style="stop-color:#020202"/>
                                                    <stop offset="0.4892" style="stop-color:#000000"/>
                                                    <stop offset="1" style="stop-color:#A7A7A7"/>
                                                </radialGradient>
        <path id="border_x5F_content" class="st29" d="M400,198.5c-0.4-52.4-20.8-101.6-57.5-138.9l0,0l-1-1l-1-1l0,0
                                                    C303.1,20.8,253.8,0.4,201.5,0v0H200h-1.5v0C146.2,0.4,96.9,20.8,59.6,57.6l0,0l-1,1l-1.2,1l0.1,0.1C20.8,96.9,0.4,146.2,0,198.5h0
                                                    v1.5v1.5h0c0.4,52.4,20.8,101.6,57.6,138.9l0,0l1,1l0,0l0,0l1,1l0,0c37.3,36.8,86.5,57.2,138.9,57.5l0,0h1.4h0h0h1.4v0
                                                    c52.9-0.4,102.5-21.1,140-58.6v0l0,0l0,0c0,0,0,0,0,0l1-1l0,0c36.8-37.3,57.2-86.5,57.5-138.9h0V200v0L400,198.5L400,198.5z
                                                     M352.3,204.5c0,0.7,0,1.3-0.1,2c0,0.6,0,1.2-0.1,1.8c0,0.6-0.1,1.3-0.1,1.9c0,0.6-0.1,1.2-0.1,1.8c0,0.6-0.1,1.3-0.2,1.9
                                                    c-0.1,0.6-0.1,1.2-0.2,1.8c-0.1,0.6-0.1,1.3-0.2,1.9c-0.1,0.6-0.1,1.2-0.2,1.8c-0.1,0.6-0.2,1.3-0.3,1.9c-0.1,0.6-0.2,1.2-0.3,1.8
                                                    c-0.1,0.6-0.2,1.2-0.3,1.8c-0.1,0.6-0.2,1.2-0.3,1.8c-0.1,0.6-0.2,1.2-0.3,1.8c-0.1,0.6-0.2,1.2-0.3,1.8c-0.1,0.6-0.3,1.2-0.4,1.8
                                                    c-0.1,0.6-0.3,1.2-0.4,1.8c-0.1,0.6-0.3,1.2-0.4,1.8c-0.1,0.6-0.3,1.2-0.4,1.8c-0.1,0.6-0.3,1.2-0.5,1.7c-0.2,0.6-0.3,1.2-0.5,1.8
                                                    c-0.2,0.6-0.3,1.1-0.5,1.7c-0.2,0.6-0.3,1.2-0.5,1.8c-0.2,0.6-0.4,1.1-0.5,1.7c-0.2,0.6-0.4,1.2-0.6,1.8c-0.2,0.5-0.4,1.1-0.5,1.6
                                                    c-0.2,0.6-0.4,1.3-0.6,1.9c-0.2,0.5-0.4,1-0.5,1.5c-0.2,0.7-0.5,1.3-0.7,2c-0.1,0.4-0.3,0.7-0.4,1.1c-0.6,1.5-1.2,2.9-1.8,4.4
                                                    c-0.2,0.4-0.3,0.8-0.5,1.2c-0.3,0.6-0.6,1.2-0.8,1.9c-0.2,0.5-0.4,1-0.7,1.5c-0.3,0.6-0.6,1.2-0.9,1.8c-0.2,0.5-0.5,1-0.7,1.5
                                                    c-0.3,0.6-0.6,1.1-0.9,1.7c-0.3,0.5-0.5,1-0.8,1.5c-0.3,0.6-0.6,1.1-0.9,1.7c-0.3,0.5-0.6,1-0.9,1.5c-0.3,0.5-0.6,1.1-0.9,1.6
                                                    c-0.3,0.5-0.6,1-0.9,1.5c-0.3,0.5-0.6,1.1-1,1.6c-0.3,0.5-0.6,1-1,1.5c-0.3,0.5-0.7,1-1,1.6c-0.3,0.5-0.7,1-1,1.5
                                                    c-0.3,0.5-0.7,1-1,1.5c-0.3,0.5-0.7,1-1.1,1.5c-0.3,0.5-0.7,1-1.1,1.5c-0.4,0.5-0.7,1-1.1,1.5c-0.4,0.5-0.7,1-1.1,1.5
                                                    c-0.4,0.5-0.8,1-1.1,1.5c-0.4,0.5-0.7,1-1.1,1.4c-0.4,0.5-0.8,1-1.2,1.5c-0.4,0.5-0.8,0.9-1.2,1.4c-0.4,0.5-0.8,1-1.2,1.5
                                                    c-0.4,0.5-0.8,0.9-1.2,1.4c-0.4,0.5-0.9,1-1.3,1.5c-0.4,0.4-0.8,0.9-1.2,1.3c-0.4,0.5-0.9,1-1.3,1.4c-0.4,0.4-0.8,0.9-1.2,1.3
                                                    c-0.3,0.3-0.6,0.6-0.9,0.9l-44.5-44.5c15.9-16.4,24.8-37.9,25.2-60.7h62.9c0,0.4,0,0.8,0,1.2C352.3,203.3,352.3,203.9,352.3,204.5z
                                                     M304.5,310.8c-0.5,0.4-0.9,0.9-1.4,1.3c-0.4,0.4-0.9,0.8-1.3,1.2c-0.5,0.4-1,0.9-1.5,1.3c-0.5,0.4-0.9,0.8-1.4,1.2
                                                    c-0.5,0.4-1,0.8-1.5,1.2c-0.5,0.4-0.9,0.8-1.4,1.2c-0.5,0.4-1,0.8-1.5,1.2c-0.5,0.4-0.9,0.8-1.4,1.1c-0.5,0.4-1,0.8-1.5,1.2
                                                    c-0.5,0.4-1,0.7-1.4,1.1c-0.5,0.4-1,0.7-1.5,1.1c-0.5,0.4-1,0.7-1.5,1.1c-0.5,0.4-1,0.7-1.6,1.1c-0.5,0.3-1,0.7-1.5,1
                                                    c-0.5,0.3-1,0.7-1.6,1c-0.5,0.3-1,0.7-1.5,1c-0.5,0.3-1.1,0.7-1.6,1c-0.5,0.3-1,0.6-1.6,1c-0.5,0.3-1.1,0.6-1.6,0.9
                                                    c-0.5,0.3-1.1,0.6-1.6,0.9c-0.5,0.3-1.1,0.6-1.6,0.9c-0.5,0.3-1.1,0.6-1.6,0.9c-0.5,0.3-1.1,0.6-1.6,0.8c-0.5,0.3-1.1,0.6-1.6,0.8
                                                    c-0.5,0.3-1.1,0.5-1.6,0.8c-0.6,0.3-1.1,0.5-1.7,0.8c-0.5,0.3-1.1,0.5-1.6,0.7c-0.6,0.3-1.1,0.5-1.7,0.8c-0.5,0.2-1,0.4-1.6,0.7
                                                    c-1.2,0.5-2.3,1-3.5,1.4c-0.6,0.2-1.1,0.4-1.7,0.7c-0.6,0.2-1.2,0.4-1.7,0.6c-0.6,0.2-1.1,0.4-1.7,0.6c-0.6,0.2-1.2,0.4-1.8,0.6
                                                    c-0.6,0.2-1.1,0.4-1.7,0.6c-0.6,0.2-1.2,0.4-1.8,0.6c-0.6,0.2-1.1,0.4-1.7,0.5c-0.6,0.2-1.2,0.3-1.8,0.5c-0.6,0.2-1.2,0.3-1.8,0.5
                                                    c-0.6,0.2-1.2,0.3-1.8,0.5c-0.6,0.2-1.2,0.3-1.8,0.5c-0.6,0.1-1.2,0.3-1.8,0.4c-0.6,0.1-1.2,0.3-1.8,0.4c-0.6,0.1-1.2,0.3-1.8,0.4
                                                    c-0.6,0.1-1.2,0.3-1.8,0.4c-0.6,0.1-1.2,0.2-1.8,0.3c-0.6,0.1-1.2,0.2-1.8,0.3c-0.6,0.1-1.2,0.2-1.8,0.3c-0.6,0.1-1.2,0.2-1.9,0.3
                                                    c-0.6,0.1-1.2,0.2-1.8,0.3c-0.6,0.1-1.2,0.2-1.9,0.3c-0.6,0.1-1.2,0.1-1.8,0.2c-0.6,0.1-1.3,0.1-1.9,0.2c-0.6,0.1-1.2,0.1-1.8,0.2
                                                    c-0.6,0.1-1.3,0.1-1.9,0.2c-0.6,0-1.2,0.1-1.8,0.1c-0.6,0-1.3,0.1-1.9,0.1c-0.6,0-1.2,0.1-1.8,0.1c-0.7,0-1.3,0.1-2,0.1
                                                    c-0.6,0-1.2,0-1.8,0c-0.4,0-0.8,0-1.2,0v-63c22.8-0.4,44.3-9.2,60.7-25.1l44.5,44.5c-0.3,0.3-0.6,0.6-0.9,0.8
                                                    C305.4,310,305,310.4,304.5,310.8z M195.5,352.3c-0.7,0-1.3,0-2-0.1c-0.6,0-1.2,0-1.8-0.1c-0.6,0-1.3-0.1-1.9-0.1
                                                    c-0.6,0-1.2-0.1-1.8-0.1c-0.6,0-1.3-0.1-1.9-0.2c-0.6-0.1-1.2-0.1-1.8-0.2c-0.6-0.1-1.3-0.1-1.9-0.2c-0.6-0.1-1.2-0.1-1.8-0.2
                                                    c-0.6-0.1-1.3-0.2-1.9-0.3c-0.6-0.1-1.2-0.2-1.8-0.3c-0.6-0.1-1.2-0.2-1.9-0.3c-0.6-0.1-1.2-0.2-1.8-0.3c-0.6-0.1-1.2-0.2-1.8-0.3
                                                    c-0.6-0.1-1.2-0.2-1.8-0.3c-0.6-0.1-1.2-0.3-1.8-0.4c-0.6-0.1-1.2-0.3-1.8-0.4c-0.6-0.1-1.2-0.3-1.8-0.4c-0.6-0.1-1.2-0.3-1.8-0.4
                                                    c-0.6-0.1-1.2-0.3-1.8-0.5c-0.6-0.2-1.2-0.3-1.8-0.5c-0.6-0.2-1.2-0.3-1.8-0.5c-0.6-0.2-1.2-0.3-1.8-0.5c-0.6-0.2-1.1-0.4-1.7-0.5
                                                    c-0.6-0.2-1.2-0.4-1.8-0.6c-0.6-0.2-1.1-0.4-1.7-0.6c-0.6-0.2-1.2-0.4-1.8-0.6c-0.6-0.2-1.1-0.4-1.7-0.6c-0.6-0.2-1.2-0.4-1.7-0.6
                                                    c-0.6-0.2-1.1-0.4-1.7-0.7c-1.2-0.5-2.3-1-3.5-1.4c-0.5-0.2-1-0.4-1.6-0.7c-0.6-0.3-1.1-0.5-1.7-0.8c-0.5-0.2-1.1-0.5-1.6-0.7
                                                    c-0.6-0.3-1.1-0.5-1.7-0.8c-0.5-0.3-1.1-0.5-1.6-0.8c-0.5-0.3-1.1-0.6-1.6-0.8c-0.5-0.3-1.1-0.6-1.6-0.8c-0.5-0.3-1.1-0.6-1.6-0.9
                                                    c-0.5-0.3-1.1-0.6-1.6-0.9c-0.5-0.3-1.1-0.6-1.6-0.9c-0.5-0.3-1.1-0.6-1.6-0.9c-0.5-0.3-1-0.6-1.6-1c-0.5-0.3-1.1-0.6-1.6-1
                                                    c-0.5-0.3-1-0.7-1.5-1c-0.5-0.3-1-0.7-1.6-1c-0.5-0.3-1-0.7-1.5-1c-0.5-0.4-1-0.7-1.6-1.1c-0.5-0.3-1-0.7-1.5-1.1
                                                    c-0.5-0.4-1-0.7-1.5-1.1c-0.5-0.4-1-0.7-1.4-1.1c-0.5-0.4-1-0.8-1.5-1.2c-0.5-0.4-0.9-0.7-1.4-1.1c-0.5-0.4-1-0.8-1.5-1.2
                                                    c-0.5-0.4-0.9-0.8-1.4-1.2c-0.5-0.4-1-0.8-1.5-1.2c-0.5-0.4-0.9-0.8-1.4-1.2c-0.5-0.4-1-0.9-1.5-1.3c-0.4-0.4-0.9-0.8-1.3-1.2
                                                    c-0.5-0.4-1-0.9-1.4-1.3c-0.4-0.4-0.9-0.8-1.3-1.3c-0.3-0.3-0.6-0.6-0.9-0.8l44.5-44.5c16.4,15.9,37.9,24.7,60.7,25.1v63
                                                    c-0.4,0-0.8,0-1.2,0C196.7,352.3,196.1,352.3,195.5,352.3z M89.2,304.5c-0.4-0.5-0.9-0.9-1.3-1.4c-0.4-0.4-0.8-0.9-1.2-1.3
                                                    c-0.4-0.5-0.9-1-1.3-1.5c-0.4-0.5-0.8-0.9-1.2-1.4c-0.4-0.5-0.8-1-1.2-1.5c-0.4-0.5-0.8-0.9-1.2-1.4c-0.4-0.5-0.8-1-1.2-1.5
                                                    c-0.4-0.5-0.8-0.9-1.1-1.4c-0.4-0.5-0.8-1-1.1-1.5c-0.4-0.5-0.7-1-1.1-1.5c-0.4-0.5-0.7-1-1.1-1.5c-0.4-0.5-0.7-1-1.1-1.5
                                                    c-0.4-0.5-0.7-1-1.1-1.5c-0.3-0.5-0.7-1-1-1.5c-0.3-0.5-0.7-1-1-1.5c-0.3-0.5-0.7-1-1-1.6c-0.3-0.5-0.6-1-1-1.5
                                                    c-0.3-0.5-0.7-1.1-1-1.6c-0.3-0.5-0.6-1-0.9-1.5c-0.3-0.5-0.6-1.1-0.9-1.6c-0.3-0.5-0.6-1-0.9-1.5c-0.3-0.6-0.6-1.1-0.9-1.7
                                                    c-0.3-0.5-0.5-1-0.8-1.5c-0.3-0.6-0.6-1.1-0.9-1.7c-0.3-0.5-0.5-1-0.7-1.5c-0.3-0.6-0.6-1.2-0.9-1.8c-0.2-0.5-0.4-1-0.7-1.5
                                                    c-0.3-0.6-0.6-1.2-0.8-1.9c-0.2-0.4-0.3-0.8-0.5-1.2c-0.6-1.5-1.2-2.9-1.8-4.4c-0.1-0.4-0.3-0.7-0.4-1.1c-0.3-0.7-0.5-1.3-0.7-2
                                                    c-0.2-0.5-0.4-1-0.5-1.5c-0.2-0.6-0.4-1.3-0.6-1.9c-0.2-0.5-0.4-1.1-0.5-1.6c-0.2-0.6-0.4-1.2-0.6-1.8c-0.2-0.6-0.4-1.1-0.5-1.7
                                                    c-0.2-0.6-0.4-1.2-0.5-1.8c-0.2-0.6-0.3-1.1-0.5-1.7c-0.2-0.6-0.3-1.2-0.5-1.8c-0.2-0.6-0.3-1.2-0.5-1.7c-0.2-0.6-0.3-1.2-0.4-1.8
                                                    c-0.1-0.6-0.3-1.2-0.4-1.8c-0.1-0.6-0.3-1.2-0.4-1.8c-0.1-0.6-0.3-1.2-0.4-1.8c-0.1-0.6-0.2-1.2-0.3-1.8c-0.1-0.6-0.2-1.2-0.3-1.8
                                                    c-0.1-0.6-0.2-1.2-0.3-1.8c-0.1-0.6-0.2-1.2-0.3-1.8c-0.1-0.6-0.2-1.2-0.3-1.8c-0.1-0.6-0.2-1.3-0.3-1.9c-0.1-0.6-0.1-1.2-0.2-1.8
                                                    c-0.1-0.6-0.1-1.3-0.2-1.9c-0.1-0.6-0.1-1.2-0.2-1.8c-0.1-0.6-0.1-1.3-0.2-1.9c0-0.6-0.1-1.2-0.1-1.8c0-0.6-0.1-1.3-0.1-1.9
                                                    c0-0.6-0.1-1.2-0.1-1.8c0-0.7-0.1-1.3-0.1-2c0-0.6,0-1.2,0-1.8c0-0.4,0-0.8,0-1.2h62.9c0.4,22.8,9.3,44.3,25.2,60.7l-44.5,44.5
                                                    c-0.3-0.3-0.6-0.6-0.9-0.9C90,305.4,89.6,305,89.2,304.5z M47.7,195.5c0-0.7,0-1.3,0.1-2c0-0.6,0-1.2,0.1-1.8
                                                    c0-0.6,0.1-1.3,0.1-1.9c0-0.6,0.1-1.2,0.1-1.8c0-0.6,0.1-1.3,0.2-1.9c0.1-0.6,0.1-1.2,0.2-1.8c0.1-0.6,0.1-1.3,0.2-1.9
                                                    c0.1-0.6,0.1-1.2,0.2-1.8c0.1-0.6,0.2-1.2,0.3-1.9c0.1-0.6,0.2-1.2,0.3-1.8c0.1-0.6,0.2-1.2,0.3-1.8c0.1-0.6,0.2-1.2,0.3-1.8
                                                    c0.1-0.6,0.2-1.2,0.3-1.8c0.1-0.6,0.2-1.2,0.3-1.8c0.1-0.6,0.3-1.2,0.4-1.8c0.1-0.6,0.3-1.2,0.4-1.8c0.1-0.6,0.3-1.2,0.4-1.8
                                                    c0.1-0.6,0.3-1.2,0.4-1.8c0.1-0.6,0.3-1.2,0.5-1.7c0.2-0.6,0.3-1.2,0.5-1.8c0.2-0.6,0.3-1.1,0.5-1.7c0.2-0.6,0.3-1.2,0.5-1.8
                                                    c0.2-0.6,0.4-1.1,0.5-1.7c0.2-0.6,0.4-1.2,0.6-1.8c0.2-0.5,0.4-1,0.5-1.6c0.2-0.6,0.4-1.3,0.7-1.9c0.2-0.5,0.4-1,0.5-1.4
                                                    c0.2-0.7,0.5-1.3,0.7-2c0.1-0.3,0.3-0.6,0.4-1c0.6-1.6,1.3-3.2,2-4.7c0.1-0.3,0.3-0.7,0.4-1c0.3-0.6,0.6-1.3,0.9-1.9
                                                    c0.2-0.5,0.4-0.9,0.6-1.4c0.3-0.6,0.6-1.2,0.9-1.8c0.2-0.5,0.5-1,0.7-1.5c0.3-0.6,0.6-1.2,0.9-1.8c0.3-0.5,0.5-1,0.8-1.5
                                                    c0.3-0.6,0.6-1.1,0.9-1.7c0.3-0.5,0.5-1,0.8-1.5c0.3-0.6,0.6-1.1,1-1.7c0.3-0.5,0.6-1,0.9-1.5c0.3-0.5,0.7-1.1,1-1.6
                                                    c0.3-0.5,0.6-1,0.9-1.5c0.3-0.5,0.7-1.1,1-1.6c0.3-0.5,0.6-1,1-1.5c0.3-0.5,0.7-1,1.1-1.6c0.3-0.5,0.7-1,1-1.5
                                                    c0.4-0.5,0.7-1,1.1-1.5c0.4-0.5,0.7-1,1.1-1.5c0.4-0.5,0.7-1,1.1-1.5c0.4-0.5,0.7-1,1.1-1.5c0.4-0.5,0.8-1,1.2-1.5
                                                    c0.4-0.5,0.8-1,1.2-1.4c0.4-0.5,0.8-1,1.2-1.4c0.4-0.5,0.8-1,1.2-1.4c0.4-0.5,0.8-0.9,1.2-1.4c0.4-0.5,0.8-0.9,1.2-1.4
                                                    c0.4-0.5,0.8-0.9,1.3-1.4c0.4-0.5,0.9-0.9,1.3-1.4c0.4-0.5,0.9-0.9,1.3-1.3c0.3-0.3,0.6-0.6,0.8-0.8l44.5,44.5
                                                    c-15.9,16.4-24.8,37.9-25.2,60.7H47.7c0-0.4,0-0.8,0-1.2C47.7,196.7,47.7,196.1,47.7,195.5z M95.5,89.2c0.5-0.4,1-0.9,1.4-1.3
                                                    c0.4-0.4,0.9-0.8,1.3-1.2c0.5-0.4,1-0.9,1.5-1.3c0.4-0.4,0.9-0.8,1.3-1.2c0.5-0.4,1-0.8,1.5-1.3c0.5-0.4,0.9-0.8,1.4-1.1
                                                    c0.5-0.4,1-0.8,1.5-1.2c0.5-0.4,0.9-0.7,1.4-1.1c0.5-0.4,1-0.8,1.5-1.2c0.5-0.4,0.9-0.7,1.4-1.1c0.5-0.4,1-0.8,1.6-1.1
                                                    c0.5-0.3,1-0.7,1.4-1c0.5-0.4,1.1-0.7,1.6-1.1c0.5-0.3,1-0.7,1.5-1c0.5-0.4,1.1-0.7,1.6-1.1c0.5-0.3,1-0.6,1.5-1
                                                    c0.5-0.3,1.1-0.7,1.6-1c0.5-0.3,1-0.6,1.5-0.9c0.6-0.3,1.1-0.6,1.7-1c0.5-0.3,1-0.6,1.5-0.9c0.6-0.3,1.1-0.6,1.7-0.9
                                                    c0.5-0.3,1-0.6,1.5-0.8c0.6-0.3,1.2-0.6,1.8-0.9c0.5-0.3,1-0.5,1.5-0.8c0.6-0.3,1.2-0.6,1.8-0.9c0.5-0.2,1-0.5,1.5-0.7
                                                    c0.6-0.3,1.3-0.6,1.9-0.9c0.5-0.2,0.9-0.4,1.4-0.6c0.8-0.4,1.6-0.7,2.5-1.1c0.6-0.2,1.2-0.5,1.8-0.7c0.8-0.3,1.7-0.7,2.5-1
                                                    c0.5-0.2,1-0.4,1.4-0.5c0.7-0.2,1.3-0.5,2-0.7c0.5-0.2,1-0.4,1.6-0.5c0.6-0.2,1.3-0.4,1.9-0.7c0.5-0.2,1.1-0.3,1.6-0.5
                                                    c0.6-0.2,1.2-0.4,1.9-0.6c0.6-0.2,1.1-0.3,1.7-0.5c0.6-0.2,1.2-0.4,1.9-0.5c0.6-0.2,1.1-0.3,1.7-0.4c0.6-0.2,1.2-0.3,1.9-0.5
                                                    c0.6-0.1,1.1-0.3,1.7-0.4c0.6-0.1,1.2-0.3,1.9-0.4c0.6-0.1,1.1-0.2,1.7-0.4c0.6-0.1,1.3-0.3,1.9-0.4c0.6-0.1,1.2-0.2,1.7-0.3
                                                    c0.6-0.1,1.3-0.2,1.9-0.4c0.6-0.1,1.2-0.2,1.7-0.3c0.6-0.1,1.3-0.2,1.9-0.3c0.6-0.1,1.2-0.2,1.8-0.2c0.6-0.1,1.3-0.2,1.9-0.3
                                                    c0.6-0.1,1.2-0.1,1.8-0.2c0.6-0.1,1.3-0.1,1.9-0.2c0.6-0.1,1.2-0.1,1.8-0.2c0.6-0.1,1.3-0.1,1.9-0.2c0.6,0,1.2-0.1,1.8-0.1
                                                    c0.7,0,1.3-0.1,2-0.1c0.6,0,1.2-0.1,1.8-0.1c0.7,0,1.3-0.1,2-0.1c0.6,0,1.2,0,1.8,0c0.4,0,0.8,0,1.2,0v63
                                                    c-22.8,0.4-44.3,9.2-60.7,25.1L93.3,91.3c0.3-0.3,0.6-0.6,0.9-0.9C94.6,90,95,89.6,95.5,89.2z M204.5,47.7c0.7,0,1.3,0,2,0.1
                                                    c0.6,0,1.2,0,1.8,0.1c0.7,0,1.3,0.1,2,0.1c0.6,0,1.2,0.1,1.8,0.1c0.6,0,1.3,0.1,1.9,0.2c0.6,0.1,1.2,0.1,1.8,0.2
                                                    c0.6,0.1,1.3,0.1,1.9,0.2c0.6,0.1,1.2,0.1,1.8,0.2c0.6,0.1,1.3,0.2,1.9,0.3c0.6,0.1,1.2,0.2,1.8,0.2c0.6,0.1,1.3,0.2,1.9,0.3
                                                    c0.6,0.1,1.2,0.2,1.7,0.3c0.6,0.1,1.3,0.2,1.9,0.4c0.6,0.1,1.2,0.2,1.7,0.3c0.6,0.1,1.3,0.3,1.9,0.4c0.6,0.1,1.2,0.2,1.7,0.4
                                                    c0.6,0.1,1.2,0.3,1.9,0.4c0.6,0.1,1.1,0.3,1.7,0.4c0.6,0.2,1.2,0.3,1.9,0.5c0.6,0.1,1.1,0.3,1.7,0.4c0.6,0.2,1.2,0.4,1.9,0.5
                                                    c0.6,0.2,1.1,0.3,1.7,0.5c0.6,0.2,1.2,0.4,1.9,0.6c0.5,0.2,1.1,0.3,1.6,0.5c0.6,0.2,1.3,0.4,1.9,0.7c0.5,0.2,1,0.4,1.6,0.5
                                                    c0.7,0.2,1.3,0.5,2,0.7c0.5,0.2,1,0.4,1.4,0.5c0.8,0.3,1.7,0.7,2.5,1c0.6,0.2,1.2,0.5,1.8,0.7c0.8,0.3,1.6,0.7,2.5,1.1
                                                    c0.5,0.2,0.9,0.4,1.4,0.6c0.6,0.3,1.3,0.6,1.9,0.9c0.5,0.2,1,0.5,1.5,0.7c0.6,0.3,1.2,0.6,1.8,0.9c0.5,0.3,1,0.5,1.5,0.8
                                                    c0.6,0.3,1.2,0.6,1.8,0.9c0.5,0.3,1,0.6,1.5,0.8c0.6,0.3,1.1,0.6,1.7,0.9c0.5,0.3,1,0.6,1.5,0.9c0.6,0.3,1.1,0.6,1.7,1
                                                    c0.5,0.3,1,0.6,1.5,0.9c0.5,0.3,1.1,0.7,1.6,1c0.5,0.3,1,0.6,1.5,1c0.5,0.3,1.1,0.7,1.6,1.1c0.5,0.3,1,0.7,1.5,1
                                                    c0.5,0.4,1.1,0.7,1.6,1.1c0.5,0.3,1,0.7,1.4,1c0.5,0.4,1,0.7,1.6,1.1c0.5,0.4,0.9,0.7,1.4,1.1c0.5,0.4,1,0.8,1.5,1.2
                                                    c0.5,0.4,0.9,0.7,1.4,1.1c0.5,0.4,1,0.8,1.5,1.2c0.5,0.4,0.9,0.8,1.4,1.1c0.5,0.4,1,0.8,1.5,1.3c0.5,0.4,0.9,0.8,1.3,1.2
                                                    c0.5,0.4,1,0.9,1.5,1.3c0.4,0.4,0.9,0.8,1.3,1.2c0.5,0.4,1,0.9,1.4,1.3c0.4,0.4,0.9,0.8,1.3,1.2c0.3,0.3,0.6,0.6,0.9,0.9
                                                    l-44.5,44.5c-16.4-15.9-37.9-24.7-60.7-25.1v-63c0.4,0,0.8,0,1.2,0C203.3,47.7,203.9,47.7,204.5,47.7z M310.9,95.5
                                                    c0.4,0.5,0.9,0.9,1.3,1.4c0.4,0.5,0.8,0.9,1.3,1.4c0.4,0.5,0.8,0.9,1.2,1.4c0.4,0.5,0.8,0.9,1.2,1.4c0.4,0.5,0.8,1,1.2,1.4
                                                    c0.4,0.5,0.8,1,1.2,1.4c0.4,0.5,0.8,1,1.2,1.4c0.4,0.5,0.8,1,1.2,1.5c0.4,0.5,0.7,1,1.1,1.5c0.4,0.5,0.8,1,1.1,1.5
                                                    c0.4,0.5,0.7,1,1.1,1.5c0.4,0.5,0.7,1,1.1,1.5c0.3,0.5,0.7,1,1,1.5c0.4,0.5,0.7,1,1.1,1.6c0.3,0.5,0.7,1,1,1.5
                                                    c0.3,0.5,0.7,1.1,1,1.6c0.3,0.5,0.6,1,0.9,1.5c0.3,0.5,0.7,1.1,1,1.6c0.3,0.5,0.6,1,0.9,1.5c0.3,0.6,0.7,1.1,1,1.7
                                                    c0.3,0.5,0.5,1,0.8,1.5c0.3,0.6,0.6,1.1,0.9,1.7c0.3,0.5,0.5,1,0.8,1.5c0.3,0.6,0.6,1.2,0.9,1.8c0.2,0.5,0.5,1,0.7,1.5
                                                    c0.3,0.6,0.6,1.2,0.9,1.8c0.2,0.5,0.4,0.9,0.6,1.4c0.3,0.6,0.6,1.3,0.9,1.9c0.1,0.3,0.3,0.7,0.4,1c0.7,1.6,1.3,3.1,2,4.7
                                                    c0.1,0.3,0.3,0.6,0.4,1c0.3,0.7,0.5,1.3,0.7,2c0.2,0.5,0.4,1,0.5,1.4c0.2,0.6,0.4,1.3,0.7,1.9c0.2,0.5,0.4,1,0.5,1.6
                                                    c0.2,0.6,0.4,1.2,0.6,1.8c0.2,0.6,0.4,1.1,0.5,1.7c0.2,0.6,0.4,1.2,0.5,1.8c0.2,0.6,0.3,1.1,0.5,1.7c0.2,0.6,0.3,1.2,0.5,1.8
                                                    c0.2,0.6,0.3,1.1,0.5,1.7c0.2,0.6,0.3,1.2,0.4,1.8c0.1,0.6,0.3,1.2,0.4,1.8c0.1,0.6,0.3,1.2,0.4,1.8c0.1,0.6,0.3,1.2,0.4,1.8
                                                    c0.1,0.6,0.2,1.2,0.3,1.8c0.1,0.6,0.2,1.2,0.3,1.8c0.1,0.6,0.2,1.2,0.3,1.8c0.1,0.6,0.2,1.2,0.3,1.8c0.1,0.6,0.2,1.2,0.3,1.8
                                                    c0.1,0.6,0.2,1.2,0.3,1.9c0.1,0.6,0.1,1.2,0.2,1.8c0.1,0.6,0.1,1.3,0.2,1.9c0.1,0.6,0.1,1.2,0.2,1.8c0.1,0.6,0.1,1.3,0.2,1.9
                                                    c0,0.6,0.1,1.2,0.1,1.8c0,0.6,0.1,1.3,0.1,1.9c0,0.6,0.1,1.2,0.1,1.8c0,0.7,0.1,1.3,0.1,2c0,0.6,0,1.2,0,1.8c0,0.4,0,0.8,0,1.2
                                                    h-62.9c-0.4-22.8-9.3-44.3-25.2-60.7l44.5-44.5c0.3,0.3,0.6,0.6,0.8,0.8C310,94.6,310.4,95,310.9,95.5z M261.1,261.1
                                                    c-16.3,16.3-38,25.3-61.1,25.3s-44.8-9-61.1-25.3c-16.4-16.3-25.4-38-25.4-61.1c0-23.1,9-44.8,25.4-61.1
                                                    c16.3-16.3,38-25.3,61.1-25.3s44.8,9,61.1,25.3c16.4,16.3,25.4,38,25.4,61.1C286.5,223.1,277.5,244.8,261.1,261.1z M355.3,198.5
                                                    c0-0.4,0-0.8,0-1.3c0-0.6,0-1.2,0-1.8c0-0.7,0-1.3-0.1-2c0-0.6,0-1.2-0.1-1.8c0-0.7-0.1-1.3-0.1-2c0-0.6-0.1-1.2-0.1-1.8
                                                    c-0.1-0.7-0.1-1.3-0.2-2c-0.1-0.6-0.1-1.2-0.2-1.8c-0.1-0.7-0.1-1.3-0.2-2c-0.1-0.6-0.1-1.2-0.2-1.7c-0.1-0.7-0.2-1.3-0.3-2
                                                    c-0.1-0.6-0.2-1.1-0.2-1.7c-0.1-0.7-0.2-1.4-0.3-2c-0.1-0.6-0.2-1.1-0.3-1.7c-0.1-0.7-0.3-1.4-0.4-2.1c-0.1-0.5-0.2-1.1-0.3-1.6
                                                    c-0.1-0.7-0.3-1.4-0.4-2.1c-0.1-0.5-0.2-1.1-0.3-1.6c-0.2-0.7-0.3-1.4-0.5-2.1c-0.1-0.5-0.2-1-0.4-1.5c-0.2-0.7-0.4-1.4-0.6-2.2
                                                    c-0.1-0.5-0.3-1-0.4-1.5c-0.2-0.8-0.4-1.5-0.6-2.2c-0.1-0.4-0.3-0.9-0.4-1.3c-0.2-0.8-0.5-1.6-0.7-2.4c-0.1-0.4-0.3-0.8-0.4-1.2
                                                    c-0.3-0.9-0.6-1.7-0.9-2.6c-0.1-0.3-0.2-0.6-0.3-0.9c-0.4-1-0.8-2.1-1.2-3.1c-0.1-0.1-0.1-0.3-0.1-0.4c-0.9-2.3-1.9-4.7-2.9-6.9
                                                    c-0.1-0.1-0.1-0.3-0.2-0.4c-0.4-1-0.9-2-1.4-3c-0.1-0.3-0.3-0.6-0.4-0.9c-0.4-0.8-0.8-1.7-1.2-2.5c-0.2-0.4-0.4-0.7-0.6-1.1
                                                    c-0.4-0.7-0.8-1.5-1.2-2.2c-0.2-0.4-0.4-0.8-0.7-1.2c-0.4-0.7-0.7-1.4-1.1-2.1c-0.2-0.4-0.5-0.9-0.7-1.3c-0.4-0.7-0.8-1.3-1.1-1.9
                                                    c-0.3-0.4-0.5-0.9-0.8-1.3c-0.4-0.6-0.8-1.2-1.1-1.9c-0.3-0.5-0.6-0.9-0.9-1.4c-0.4-0.6-0.8-1.2-1.2-1.8c-0.3-0.5-0.6-0.9-0.9-1.4
                                                    c-0.4-0.6-0.8-1.2-1.2-1.7c-0.3-0.5-0.7-0.9-1-1.4c-0.4-0.6-0.8-1.1-1.2-1.7c-0.3-0.5-0.7-0.9-1-1.4c-0.4-0.5-0.8-1.1-1.2-1.6
                                                    c-0.4-0.5-0.7-0.9-1.1-1.4c-0.4-0.5-0.8-1.1-1.3-1.6c-0.4-0.5-0.8-0.9-1.1-1.4c-0.4-0.5-0.9-1-1.3-1.5c-0.4-0.5-0.8-0.9-1.2-1.4
                                                    c-0.4-0.5-0.9-1-1.3-1.5c-0.4-0.5-0.8-0.9-1.2-1.3c-0.4-0.5-0.9-1-1.4-1.5c-0.4-0.4-0.9-0.9-1.3-1.3c-0.3-0.3-0.6-0.6-0.9-0.9
                                                    l14.8-14.8l14.8-14.8c36.2,36.8,56.3,85.3,56.7,136.9H355.3L355.3,198.5z M338.3,59.6l-1.6,1.6l-28,28c-0.3-0.3-0.6-0.6-0.9-0.9
                                                    c-0.4-0.4-0.9-0.8-1.3-1.2c-0.5-0.5-1-0.9-1.5-1.4c-0.4-0.4-0.9-0.8-1.3-1.2c-0.5-0.5-1-0.9-1.5-1.4c-0.4-0.4-0.9-0.8-1.3-1.2
                                                    c-0.5-0.4-1.1-0.9-1.6-1.3c-0.4-0.4-0.9-0.7-1.3-1.1c-0.5-0.4-1.1-0.9-1.6-1.3c-0.4-0.4-0.9-0.7-1.3-1.1c-0.6-0.4-1.1-0.8-1.7-1.3
                                                    c-0.4-0.3-0.9-0.7-1.3-1c-0.6-0.4-1.1-0.8-1.7-1.2c-0.4-0.3-0.9-0.6-1.3-1c-0.6-0.4-1.2-0.8-1.8-1.2c-0.4-0.3-0.9-0.6-1.3-0.9
                                                    c-0.6-0.4-1.2-0.8-1.8-1.2c-0.4-0.3-0.9-0.6-1.3-0.9c-0.6-0.4-1.3-0.8-1.9-1.2c-0.4-0.3-0.9-0.5-1.3-0.8c-0.7-0.4-1.3-0.8-2-1.2
                                                    c-0.4-0.2-0.8-0.5-1.3-0.7c-0.7-0.4-1.4-0.8-2.1-1.2c-0.4-0.2-0.8-0.4-1.2-0.6c-0.7-0.4-1.5-0.8-2.3-1.2c-0.4-0.2-0.7-0.4-1.1-0.5
                                                    c-0.8-0.4-1.7-0.8-2.5-1.2c-0.3-0.1-0.5-0.3-0.8-0.4c-1-0.5-2.1-1-3.1-1.4c-0.1,0-0.2-0.1-0.3-0.1c-2.3-1-4.6-2-6.9-2.9
                                                    c-0.1,0-0.3-0.1-0.4-0.1c-1-0.4-2.1-0.8-3.1-1.2c-0.3-0.1-0.6-0.2-0.9-0.3c-0.9-0.3-1.7-0.6-2.6-0.9c-0.4-0.1-0.8-0.3-1.2-0.4
                                                    c-0.8-0.3-1.6-0.5-2.4-0.7c-0.4-0.1-0.9-0.3-1.3-0.4c-0.7-0.2-1.5-0.4-2.2-0.6c-0.5-0.1-1-0.3-1.4-0.4c-0.7-0.2-1.4-0.4-2.2-0.6
                                                    c-0.5-0.1-1-0.2-1.5-0.4c-0.7-0.2-1.4-0.3-2.1-0.5c-0.5-0.1-1.1-0.2-1.6-0.3c-0.7-0.1-1.4-0.3-2.1-0.4c-0.5-0.1-1.1-0.2-1.6-0.3
                                                    c-0.7-0.1-1.4-0.3-2.1-0.4c-0.6-0.1-1.1-0.2-1.7-0.3c-0.7-0.1-1.4-0.2-2-0.3c-0.6-0.1-1.1-0.2-1.7-0.2c-0.7-0.1-1.4-0.2-2-0.3
                                                    c-0.6-0.1-1.2-0.1-1.7-0.2c-0.7-0.1-1.3-0.2-2-0.2c-0.6-0.1-1.2-0.1-1.8-0.2c-0.7-0.1-1.3-0.1-2-0.2c-0.6,0-1.2-0.1-1.8-0.1
                                                    c-0.7,0-1.3-0.1-2-0.1c-0.6,0-1.2-0.1-1.8-0.1c-0.7,0-1.3-0.1-2-0.1c-0.6,0-1.2,0-1.8,0c-0.4,0-0.8,0-1.3,0v0V2.9
                                                    C253.1,3.3,301.6,23.4,338.3,59.6z M198.5,2.9v41.8v0c-0.4,0-0.8,0-1.3,0c-0.6,0-1.2,0-1.8,0c-0.7,0-1.3,0-2,0.1
                                                    c-0.6,0-1.2,0-1.8,0.1c-0.7,0-1.3,0.1-2,0.1c-0.6,0-1.2,0.1-1.8,0.1c-0.7,0.1-1.3,0.1-2,0.2c-0.6,0.1-1.2,0.1-1.8,0.2
                                                    c-0.7,0.1-1.3,0.1-2,0.2c-0.6,0.1-1.2,0.1-1.7,0.2c-0.7,0.1-1.4,0.2-2,0.3c-0.6,0.1-1.1,0.2-1.7,0.2c-0.7,0.1-1.4,0.2-2,0.3
                                                    c-0.6,0.1-1.1,0.2-1.7,0.3c-0.7,0.1-1.4,0.3-2.1,0.4c-0.5,0.1-1.1,0.2-1.6,0.3c-0.7,0.1-1.4,0.3-2.1,0.4c-0.5,0.1-1.1,0.2-1.6,0.3
                                                    c-0.7,0.2-1.4,0.3-2.1,0.5c-0.5,0.1-1,0.2-1.5,0.4c-0.7,0.2-1.4,0.4-2.2,0.6c-0.5,0.1-1,0.3-1.4,0.4c-0.8,0.2-1.5,0.4-2.2,0.6
                                                    c-0.4,0.1-0.9,0.3-1.3,0.4c-0.8,0.2-1.6,0.5-2.4,0.7c-0.4,0.1-0.8,0.2-1.2,0.4c-0.9,0.3-1.7,0.6-2.6,0.9c-0.3,0.1-0.6,0.2-0.9,0.3
                                                    c-1,0.4-2.1,0.8-3.1,1.2c-0.1,0-0.3,0.1-0.4,0.1c-2.3,0.9-4.7,1.9-6.9,2.9c-0.1,0-0.2,0.1-0.3,0.1c-1,0.5-2.1,0.9-3.1,1.4
                                                    c-0.3,0.1-0.6,0.3-0.8,0.4c-0.8,0.4-1.7,0.8-2.5,1.2c-0.4,0.2-0.7,0.4-1.1,0.5c-0.8,0.4-1.5,0.8-2.3,1.2c-0.4,0.2-0.8,0.4-1.2,0.6
                                                    c-0.7,0.4-1.4,0.8-2.1,1.2c-0.4,0.2-0.8,0.5-1.3,0.7c-0.7,0.4-1.3,0.8-2,1.2c-0.4,0.3-0.9,0.5-1.3,0.8c-0.6,0.4-1.3,0.8-1.9,1.2
                                                    c-0.4,0.3-0.9,0.6-1.3,0.9c-0.6,0.4-1.2,0.8-1.8,1.2c-0.4,0.3-0.9,0.6-1.3,0.9c-0.6,0.4-1.2,0.8-1.8,1.2c-0.4,0.3-0.9,0.6-1.3,1
                                                    c-0.6,0.4-1.2,0.8-1.7,1.2c-0.4,0.3-0.9,0.7-1.3,1c-0.6,0.4-1.1,0.8-1.7,1.3c-0.4,0.3-0.9,0.7-1.3,1.1c-0.5,0.4-1.1,0.9-1.6,1.3
                                                    c-0.4,0.4-0.9,0.7-1.3,1.1c-0.5,0.4-1.1,0.9-1.6,1.3c-0.4,0.4-0.9,0.8-1.3,1.2c-0.5,0.5-1,0.9-1.5,1.4c-0.4,0.4-0.9,0.8-1.3,1.2
                                                    c-0.5,0.5-1,0.9-1.5,1.4c-0.4,0.4-0.9,0.8-1.3,1.2c-0.3,0.3-0.6,0.6-0.9,0.9l-28-28l-1.6-1.6C98.4,23.4,146.9,3.3,198.5,2.9z
                                                     M59.6,61.7l15.2,15.2l14.4,14.4c-0.3,0.3-0.6,0.6-0.9,0.9c-0.4,0.4-0.9,0.9-1.3,1.3c-0.5,0.5-0.9,1-1.4,1.5
                                                    c-0.4,0.4-0.8,0.9-1.2,1.3c-0.4,0.5-0.9,1-1.3,1.5c-0.4,0.5-0.8,0.9-1.2,1.4c-0.4,0.5-0.9,1-1.3,1.5c-0.4,0.5-0.8,0.9-1.1,1.4
                                                    c-0.4,0.5-0.9,1.1-1.3,1.6c-0.4,0.5-0.7,0.9-1.1,1.4c-0.4,0.5-0.8,1.1-1.2,1.6c-0.3,0.5-0.7,0.9-1,1.4c-0.4,0.6-0.8,1.1-1.2,1.7
                                                    c-0.3,0.5-0.7,0.9-1,1.4c-0.4,0.6-0.8,1.2-1.2,1.7c-0.3,0.5-0.6,0.9-0.9,1.4c-0.4,0.6-0.8,1.2-1.2,1.8c-0.3,0.5-0.6,0.9-0.9,1.4
                                                    c-0.4,0.6-0.8,1.2-1.1,1.9c-0.3,0.4-0.5,0.9-0.8,1.3c-0.4,0.6-0.8,1.3-1.1,1.9c-0.2,0.4-0.5,0.9-0.7,1.3c-0.4,0.7-0.8,1.4-1.1,2.1
                                                    c-0.2,0.4-0.4,0.8-0.7,1.2c-0.4,0.7-0.8,1.5-1.2,2.2c-0.2,0.4-0.4,0.7-0.6,1.1c-0.4,0.8-0.8,1.6-1.2,2.5c-0.1,0.3-0.3,0.6-0.4,0.9
                                                    c-0.5,1-0.9,2-1.4,3c-0.1,0.1-0.1,0.3-0.2,0.4c-1,2.3-2,4.6-2.9,6.9c-0.1,0.1-0.1,0.3-0.1,0.4c-0.4,1-0.8,2.1-1.2,3.1
                                                    c-0.1,0.3-0.2,0.6-0.3,0.9c-0.3,0.9-0.6,1.7-0.9,2.6c-0.1,0.4-0.3,0.8-0.4,1.2c-0.3,0.8-0.5,1.6-0.7,2.4c-0.1,0.4-0.3,0.9-0.4,1.3
                                                    c-0.2,0.7-0.4,1.5-0.6,2.2c-0.1,0.5-0.3,1-0.4,1.5c-0.2,0.7-0.4,1.4-0.6,2.2c-0.1,0.5-0.2,1-0.4,1.5c-0.2,0.7-0.3,1.4-0.5,2.1
                                                    c-0.1,0.5-0.2,1.1-0.3,1.6c-0.1,0.7-0.3,1.4-0.4,2.1c-0.1,0.5-0.2,1.1-0.3,1.6c-0.1,0.7-0.3,1.4-0.4,2.1c-0.1,0.6-0.2,1.1-0.3,1.7
                                                    c-0.1,0.7-0.2,1.4-0.3,2c-0.1,0.6-0.2,1.1-0.2,1.7c-0.1,0.7-0.2,1.3-0.3,2c-0.1,0.6-0.1,1.2-0.2,1.7c-0.1,0.7-0.2,1.3-0.2,2
                                                    c-0.1,0.6-0.1,1.2-0.2,1.8c-0.1,0.7-0.1,1.3-0.2,2c0,0.6-0.1,1.2-0.1,1.8c0,0.7-0.1,1.3-0.1,2c0,0.6-0.1,1.2-0.1,1.8
                                                    c0,0.7-0.1,1.3-0.1,2c0,0.6,0,1.2,0,1.8c0,0.4,0,0.8,0,1.3h0H2.9C3.3,146.9,23.4,98.4,59.6,61.7z M44.7,201.5c0,0.4,0,0.8,0,1.3
                                                    c0,0.6,0,1.2,0,1.8c0,0.7,0,1.3,0.1,2c0,0.6,0,1.2,0.1,1.8c0,0.7,0.1,1.3,0.1,2c0,0.6,0.1,1.2,0.1,1.8c0.1,0.7,0.1,1.3,0.2,2
                                                    c0.1,0.6,0.1,1.2,0.2,1.8c0.1,0.7,0.1,1.3,0.2,2c0.1,0.6,0.1,1.2,0.2,1.7c0.1,0.7,0.2,1.4,0.3,2c0.1,0.6,0.2,1.1,0.2,1.7
                                                    c0.1,0.7,0.2,1.4,0.3,2.1c0.1,0.6,0.2,1.1,0.3,1.7c0.1,0.7,0.3,1.4,0.4,2.1c0.1,0.5,0.2,1.1,0.3,1.6c0.1,0.7,0.3,1.4,0.4,2.1
                                                    c0.1,0.5,0.2,1,0.3,1.6c0.2,0.7,0.3,1.4,0.5,2.1c0.1,0.5,0.2,1,0.4,1.5c0.2,0.7,0.4,1.5,0.6,2.2c0.1,0.5,0.2,0.9,0.4,1.4
                                                    c0.2,0.8,0.4,1.5,0.7,2.3c0.1,0.4,0.2,0.9,0.4,1.3c0.2,0.8,0.5,1.6,0.8,2.4c0.1,0.4,0.2,0.8,0.4,1.1c0.3,0.9,0.6,1.8,0.9,2.7
                                                    c0.1,0.3,0.2,0.6,0.3,0.9c0.4,1.1,0.8,2.2,1.2,3.3c0,0.1,0.1,0.2,0.1,0.2c0.9,2.3,1.9,4.7,2.9,7c0,0.1,0.1,0.1,0.1,0.2
                                                    c0.5,1.1,1,2.1,1.5,3.2c0.1,0.3,0.3,0.5,0.4,0.8c0.4,0.9,0.8,1.7,1.3,2.6c0.2,0.3,0.3,0.7,0.5,1c0.4,0.8,0.8,1.5,1.2,2.3
                                                    c0.2,0.4,0.4,0.8,0.6,1.2c0.4,0.7,0.8,1.4,1.2,2.1c0.2,0.4,0.5,0.8,0.7,1.2c0.4,0.7,0.8,1.3,1.2,2c0.3,0.4,0.5,0.9,0.8,1.3
                                                    c0.4,0.6,0.8,1.3,1.2,1.9c0.3,0.4,0.6,0.9,0.9,1.3c0.4,0.6,0.8,1.2,1.2,1.8c0.3,0.4,0.6,0.9,0.9,1.3c0.4,0.6,0.8,1.2,1.2,1.8
                                                    c0.3,0.5,0.6,0.9,1,1.3c0.4,0.6,0.8,1.1,1.2,1.7c0.3,0.5,0.7,0.9,1,1.4c0.4,0.6,0.8,1.1,1.3,1.7c0.4,0.5,0.7,0.9,1.1,1.4
                                                    c0.4,0.5,0.9,1.1,1.3,1.6c0.4,0.5,0.7,0.9,1.1,1.4c0.4,0.5,0.9,1,1.3,1.6c0.4,0.5,0.8,0.9,1.2,1.3c0.4,0.5,0.9,1,1.3,1.5
                                                    c0.4,0.5,0.8,0.9,1.2,1.3c0.5,0.5,0.9,1,1.4,1.5c0.4,0.4,0.9,0.9,1.3,1.3c0.3,0.3,0.6,0.6,0.9,0.9l-19.7,19.7l-9.9,9.9
                                                    C23.4,301.6,3.3,253.1,2.9,201.5H44.7z M76.5,325.6l14.8-14.8l0,0l0,0c0.3,0.3,0.6,0.6,0.9,0.9c0.4,0.4,0.9,0.9,1.3,1.3
                                                    c0.5,0.4,1,0.9,1.4,1.3c0.5,0.4,0.9,0.8,1.4,1.3c0.5,0.4,1,0.9,1.5,1.3c0.5,0.4,0.9,0.8,1.4,1.2c0.5,0.4,1,0.8,1.5,1.3
                                                    c0.5,0.4,0.9,0.8,1.4,1.2c0.5,0.4,1,0.8,1.5,1.2c0.5,0.4,0.9,0.8,1.4,1.1c0.5,0.4,1,0.8,1.6,1.2c0.5,0.4,1,0.7,1.4,1.1
                                                    c0.5,0.4,1.1,0.8,1.6,1.2c0.5,0.3,1,0.7,1.4,1c0.5,0.4,1.1,0.8,1.7,1.1c0.5,0.3,1,0.7,1.4,1c0.6,0.4,1.1,0.7,1.7,1.1
                                                    c0.5,0.3,1,0.6,1.4,0.9c0.6,0.4,1.2,0.7,1.8,1.1c0.5,0.3,1,0.6,1.4,0.9c0.6,0.4,1.2,0.7,1.8,1.1c0.5,0.3,0.9,0.5,1.4,0.8
                                                    c0.6,0.4,1.3,0.7,1.9,1c0.5,0.3,0.9,0.5,1.4,0.8c0.7,0.4,1.3,0.7,2,1c0.4,0.2,0.9,0.5,1.3,0.7c0.7,0.4,1.5,0.7,2.2,1.1
                                                    c0.4,0.2,0.8,0.4,1.1,0.6c0.9,0.4,1.8,0.8,2.6,1.2c0.2,0.1,0.5,0.2,0.7,0.3c2.3,1,4.6,2,6.9,2.9c0.3,0.1,0.5,0.2,0.8,0.3
                                                    c0.9,0.3,1.8,0.7,2.7,1c0.4,0.1,0.8,0.3,1.2,0.4c0.8,0.3,1.6,0.6,2.4,0.8c0.4,0.1,0.9,0.3,1.3,0.4c0.7,0.2,1.5,0.5,2.2,0.7
                                                    c0.5,0.1,1,0.3,1.4,0.4c0.7,0.2,1.4,0.4,2.2,0.6c0.5,0.1,1,0.3,1.5,0.4c0.7,0.2,1.4,0.4,2.1,0.6c0.5,0.1,1,0.3,1.6,0.4
                                                    c0.7,0.2,1.4,0.3,2.1,0.5c0.5,0.1,1.1,0.2,1.6,0.3c0.7,0.1,1.4,0.3,2.1,0.4c0.6,0.1,1.1,0.2,1.7,0.3c0.7,0.1,1.4,0.3,2,0.4
                                                    c0.6,0.1,1.1,0.2,1.7,0.3c0.7,0.1,1.3,0.2,2,0.3c0.6,0.1,1.1,0.2,1.7,0.2c0.7,0.1,1.3,0.2,2,0.3c0.6,0.1,1.2,0.1,1.8,0.2
                                                    c0.7,0.1,1.3,0.2,2,0.2c0.6,0.1,1.2,0.1,1.8,0.2c0.7,0.1,1.3,0.1,2,0.2c0.6,0,1.2,0.1,1.8,0.1c0.7,0,1.3,0.1,2,0.1
                                                    c0.6,0,1.2,0.1,1.8,0.1c0.7,0,1.3,0.1,2,0.1c0.6,0,1.2,0,1.8,0c0.4,0,0.8,0,1.3,0v0v41.8c-51.6-0.4-100.1-20.5-136.9-56.7
                                                    L76.5,325.6z M201.5,355.3L201.5,355.3c0.4,0,0.8,0,1.3,0c0.6,0,1.2,0,1.8,0c0.7,0,1.3,0,2-0.1c0.6,0,1.2,0,1.8-0.1
                                                    c0.7,0,1.3-0.1,2-0.1c0.6,0,1.2-0.1,1.8-0.1c0.7-0.1,1.3-0.1,2-0.2c0.6-0.1,1.2-0.1,1.8-0.2c0.7-0.1,1.3-0.1,2-0.2
                                                    c0.6-0.1,1.2-0.1,1.8-0.2c0.7-0.1,1.3-0.2,2-0.3c0.6-0.1,1.2-0.2,1.7-0.2c0.7-0.1,1.4-0.2,2-0.3c0.6-0.1,1.1-0.2,1.7-0.3
                                                    c0.7-0.1,1.4-0.2,2-0.4c0.6-0.1,1.1-0.2,1.7-0.3c0.7-0.1,1.4-0.3,2.1-0.4c0.5-0.1,1.1-0.2,1.6-0.3c0.7-0.2,1.4-0.3,2.1-0.5
                                                    c0.5-0.1,1-0.2,1.6-0.4c0.7-0.2,1.4-0.4,2.1-0.6c0.5-0.1,1-0.3,1.5-0.4c0.7-0.2,1.4-0.4,2.2-0.6c0.5-0.1,1-0.3,1.4-0.4
                                                    c0.7-0.2,1.5-0.5,2.2-0.7c0.4-0.1,0.9-0.3,1.3-0.4c0.8-0.3,1.6-0.5,2.4-0.8c0.4-0.1,0.8-0.3,1.2-0.4c0.9-0.3,1.8-0.7,2.7-1
                                                    c0.3-0.1,0.5-0.2,0.8-0.3c2.3-0.9,4.6-1.9,6.9-2.9c0.2-0.1,0.5-0.2,0.7-0.3c0.9-0.4,1.8-0.8,2.6-1.2c0.4-0.2,0.8-0.4,1.1-0.6
                                                    c0.7-0.4,1.5-0.7,2.2-1.1c0.4-0.2,0.9-0.4,1.3-0.7c0.7-0.3,1.3-0.7,2-1c0.5-0.2,0.9-0.5,1.4-0.8c0.6-0.3,1.3-0.7,1.9-1
                                                    c0.5-0.3,0.9-0.5,1.4-0.8c0.6-0.4,1.2-0.7,1.8-1.1c0.5-0.3,1-0.6,1.4-0.9c0.6-0.4,1.2-0.7,1.8-1.1c0.5-0.3,1-0.6,1.4-0.9
                                                    c0.6-0.4,1.1-0.7,1.7-1.1c0.5-0.3,1-0.7,1.4-1c0.6-0.4,1.1-0.8,1.7-1.1c0.5-0.3,1-0.7,1.4-1c0.5-0.4,1.1-0.8,1.6-1.2
                                                    c0.5-0.4,1-0.7,1.4-1.1c0.5-0.4,1.1-0.8,1.6-1.2c0.5-0.4,1-0.8,1.4-1.1c0.5-0.4,1-0.8,1.5-1.2c0.5-0.4,0.9-0.8,1.4-1.2
                                                    c0.5-0.4,1-0.8,1.5-1.3c0.5-0.4,0.9-0.8,1.4-1.2c0.5-0.4,1-0.9,1.5-1.3c0.5-0.4,0.9-0.8,1.4-1.3c0.5-0.4,1-0.9,1.4-1.3
                                                    c0.5-0.4,0.9-0.9,1.3-1.3c0.3-0.3,0.6-0.6,0.9-0.9l0,0l0,0l14.7,14.7l14.9,14.9c-36.8,36.2-85.3,56.3-136.9,56.7V355.3z
                                                     M340.4,338.3l-28-28l-1.6-1.6c0.3-0.3,0.6-0.6,0.9-0.9c0.4-0.4,0.9-0.9,1.3-1.3c0.5-0.5,0.9-1,1.4-1.5c0.4-0.4,0.8-0.9,1.2-1.3
                                                    c0.4-0.5,0.9-1,1.3-1.5c0.4-0.4,0.8-0.9,1.2-1.3c0.4-0.5,0.9-1,1.3-1.6c0.4-0.4,0.8-0.9,1.1-1.4c0.4-0.5,0.9-1.1,1.3-1.6
                                                    c0.4-0.5,0.7-0.9,1.1-1.4c0.4-0.5,0.8-1.1,1.3-1.7c0.3-0.5,0.7-0.9,1-1.4c0.4-0.6,0.8-1.1,1.2-1.7c0.3-0.4,0.6-0.9,1-1.3
                                                    c0.4-0.6,0.8-1.2,1.2-1.8c0.3-0.4,0.6-0.9,0.9-1.3c0.4-0.6,0.8-1.2,1.2-1.8c0.3-0.4,0.6-0.9,0.9-1.3c0.4-0.6,0.8-1.3,1.2-1.9
                                                    c0.3-0.4,0.5-0.9,0.8-1.3c0.4-0.7,0.8-1.3,1.2-2c0.2-0.4,0.5-0.8,0.7-1.2c0.4-0.7,0.8-1.4,1.2-2.1c0.2-0.4,0.4-0.8,0.6-1.2
                                                    c0.4-0.8,0.8-1.5,1.2-2.3c0.2-0.3,0.3-0.7,0.5-1c0.4-0.9,0.8-1.7,1.3-2.6c0.1-0.3,0.3-0.5,0.4-0.8c0.5-1.1,1-2.1,1.5-3.2
                                                    c0-0.1,0.1-0.1,0.1-0.2c1-2.3,2-4.6,2.9-7c0-0.1,0.1-0.2,0.1-0.2c0.4-1.1,0.8-2.2,1.2-3.3c0.1-0.3,0.2-0.6,0.3-0.9
                                                    c0.3-0.9,0.6-1.8,0.9-2.7c0.1-0.4,0.2-0.8,0.4-1.1c0.3-0.8,0.5-1.6,0.8-2.4c0.1-0.4,0.3-0.9,0.4-1.3c0.2-0.8,0.5-1.5,0.7-2.3
                                                    c0.1-0.5,0.2-0.9,0.4-1.4c0.2-0.7,0.4-1.5,0.6-2.2c0.1-0.5,0.2-1,0.4-1.5c0.2-0.7,0.3-1.4,0.5-2.1c0.1-0.5,0.2-1,0.3-1.6
                                                    c0.2-0.7,0.3-1.4,0.4-2.1c0.1-0.5,0.2-1.1,0.3-1.6c0.1-0.7,0.3-1.4,0.4-2.1c0.1-0.6,0.2-1.1,0.3-1.7c0.1-0.7,0.2-1.4,0.3-2.1
                                                    c0.1-0.6,0.2-1.1,0.2-1.7c0.1-0.7,0.2-1.4,0.3-2c0.1-0.6,0.1-1.2,0.2-1.7c0.1-0.7,0.2-1.3,0.2-2c0.1-0.6,0.1-1.2,0.2-1.8
                                                    c0.1-0.7,0.1-1.3,0.2-2c0-0.6,0.1-1.2,0.1-1.8c0-0.7,0.1-1.3,0.1-2c0-0.6,0.1-1.2,0.1-1.8c0-0.7,0.1-1.3,0.1-2c0-0.6,0-1.2,0-1.8
                                                    c0-0.4,0-0.8,0-1.3h41.8C396.7,253.1,376.6,301.6,340.4,338.3z"/>
                                            </g>
                                            </svg>